<?xml version="1.0" encoding="utf-8"?>
<!-- Generator: Adobe Illustrator 19.1.0, SVG Export Plug-In . SVG Version: 6.00 Build 0)  -->
<svg version="1.1" id="Layer_1" xmlns="http://www.w3.org/2000/svg" xmlns:xlink="http://www.w3.org/1999/xlink" x="0px" y="0px"
	 viewBox="194 190 1000 414" style="enable-background:new 194 190 1000 414;" xml:space="preserve">
<style type="text/css">
	.st0{fill:url(#SVGID_1_);}
	.st1{fill:url(#SVGID_2_);}
	.st2{fill:url(#SVGID_3_);}
	.st3{fill:url(#SVGID_4_);}
	.st4{fill:url(#SVGID_5_);}
	.st5{fill:url(#SVGID_6_);}
	.st6{fill:url(#SVGID_7_);}
	.st7{fill:url(#SVGID_8_);}
	.st8{fill:url(#SVGID_9_);}
	.st9{fill:url(#SVGID_10_);}
	.st10{fill:url(#SVGID_11_);}
	.st11{fill:url(#SVGID_12_);}
	.st12{fill:url(#SVGID_13_);}
	.st13{fill:url(#SVGID_14_);}
	.st14{fill:url(#SVGID_15_);}
	.st15{fill:url(#SVGID_16_);}
	.st16{fill:url(#SVGID_17_);}
	.st17{fill:url(#SVGID_18_);}
	.st18{fill:url(#SVGID_19_);}
	.st19{fill:url(#SVGID_20_);}
	.st20{fill:url(#SVGID_21_);}
	.st21{fill:url(#SVGID_22_);}
	.st22{fill:url(#SVGID_23_);}
	.st23{fill:url(#SVGID_24_);}
	.st24{fill:url(#SVGID_25_);}
	.st25{fill:url(#SVGID_26_);}
	.st26{fill:url(#SVGID_27_);}
	.st27{fill:url(#SVGID_28_);}
	.st28{fill:url(#SVGID_29_);}
	.st29{fill:url(#SVGID_30_);}
	.st30{fill:url(#SVGID_31_);}
	.st31{fill:url(#SVGID_32_);}
	.st32{fill:url(#SVGID_33_);}
	.st33{fill:url(#SVGID_34_);}
	.st34{fill:url(#SVGID_35_);}
	.st35{fill:url(#SVGID_36_);}
	.st36{fill:url(#SVGID_37_);}
	.st37{fill:url(#SVGID_38_);}
	.st38{fill:url(#SVGID_39_);}
	.st39{fill:url(#SVGID_40_);}
	.st40{fill:url(#SVGID_41_);}
	.st41{fill:url(#SVGID_42_);}
	.st42{fill:url(#SVGID_43_);}
	.st43{fill:url(#SVGID_44_);}
	.st44{fill:url(#SVGID_45_);}
	.st45{fill:url(#SVGID_46_);}
</style>
<g id="ID.AC">
	
		<radialGradient id="SVGID_1_" cx="232.2999" cy="554.15" r="42.0732" gradientTransform="matrix(1 0 0 -1 0 796)" gradientUnits="userSpaceOnUse">
		<stop  offset="0" style="stop-color:#B0FF2A"/>
		<stop  offset="1" style="stop-color:#75A900"/>
	</radialGradient>
	<path class="st0" d="M245.1,287.7l-1.6,0.1l1,1.8L245.1,287.7z M246.1,284.8l-2-0.1l3.9,2.7l1.1-1.1l-1.5-2L246.1,284.8z
		 M217.9,267.7l-2.6-0.9l-0.2,2.2l-1.4,0.4l1.8,4.5l6,1.8l5.8,4.6l2.2,1.1l1.1-0.7l-2.7-3.5l-4.8-3.9l-1.2-1.9L217.9,267.7z
		 M265.8,285.3l-1-11.9l-1.5-4.1l-1.9-1.6l-0.7-4l1-1.1l-0.9-2.1l1.4-2.4l-1.5-4.7l-3-5.7l4.3-5.9l1.4-7l4.4-0.9v-0.2v-3.2l-1.6-1.8
		l-4.6-1.2l0.2-1.9l-2.4-6.5l-5.5-4.5l-3.8-4.4l-5.7,2.6l-5.6-3.1l-8.7,1.6l-11.2-2.6l-2.8-2.5l-2.1-2.7l-5-2.5l-2,0.5l-2.3-1
		l-4.6,2.5l1.4,3.3l-1.1,2.9l2.3,3l3.1,8.4l2.3,3.2l5.2,5.2l5.7,6.4l4.5,3.2l4.9,6.6l2.9,1.9l4.7,0.1l2.5,1.9l2.9,3.5l3.4,6.3
		l2.6,2.2l0.4,2l2.8,4.1l3.9,1.5l1.5,8.3v2.9l2,3.2l1.6,0.5l3-0.3l2.9,1.8L265.8,285.3z M199.6,201l-0.8-0.9l-0.6,1.3L199.6,201z
		 M197.4,198.2l-0.6,1.4l0.9,0.1L197.4,198.2z M200.1,194.1l1.7,2.8l1.1,0.4L200.1,194.1z"/>
</g>
<g>
	
		<radialGradient id="SVGID_2_" cx="684.2499" cy="538.55" r="0.8732" gradientTransform="matrix(1 0 0 -1 0 796)" gradientUnits="userSpaceOnUse">
		<stop  offset="0" style="stop-color:#B0FF2A"/>
		<stop  offset="1" style="stop-color:#75A900"/>
	</radialGradient>
	<polygon class="st1" points="685.4,257.9 684.1,257 683.1,257.5 	"/>
</g>
<g>
	
		<radialGradient id="SVGID_3_" cx="687.45" cy="538.7499" r="1.6008" gradientTransform="matrix(1 0 0 -1 0 796)" gradientUnits="userSpaceOnUse">
		<stop  offset="0" style="stop-color:#B0FF2A"/>
		<stop  offset="1" style="stop-color:#75A900"/>
	</radialGradient>
	<polygon class="st2" points="688.3,259.2 688.6,255.3 686.3,257.8 	"/>
</g>
<g>
	
		<radialGradient id="SVGID_4_" cx="681.95" cy="543.4" r="2.2861" gradientTransform="matrix(1 0 0 -1 0 796)" gradientUnits="userSpaceOnUse">
		<stop  offset="0" style="stop-color:#B0FF2A"/>
		<stop  offset="1" style="stop-color:#75A900"/>
	</radialGradient>
	<polygon class="st3" points="684.7,253.1 682.2,251.6 679.2,250.9 679.3,253 684.6,254.3 	"/>
</g>
<g>
	
		<radialGradient id="SVGID_5_" cx="690.2499" cy="551.15" r="0.8016" gradientTransform="matrix(1 0 0 -1 0 796)" gradientUnits="userSpaceOnUse">
		<stop  offset="0" style="stop-color:#B0FF2A"/>
		<stop  offset="1" style="stop-color:#75A900"/>
	</radialGradient>
	<polygon class="st4" points="690,244 689.5,244.4 691,245.7 	"/>
</g>
<g>
	
		<radialGradient id="SVGID_6_" cx="687.7" cy="556.65" r="1.7295" gradientTransform="matrix(1 0 0 -1 0 796)" gradientUnits="userSpaceOnUse">
		<stop  offset="0" style="stop-color:#B0FF2A"/>
		<stop  offset="1" style="stop-color:#75A900"/>
	</radialGradient>
	<polygon class="st5" points="688.5,241.2 689.3,240.3 687.7,237.5 686.1,239.4 	"/>
</g>
<g>
	
		<radialGradient id="SVGID_7_" cx="690.8499" cy="557.55" r="2.1101" gradientTransform="matrix(1 0 0 -1 0 796)" gradientUnits="userSpaceOnUse">
		<stop  offset="0" style="stop-color:#B0FF2A"/>
		<stop  offset="1" style="stop-color:#75A900"/>
	</radialGradient>
	<polygon class="st6" points="688.3,236.9 692.7,240 693.4,239.5 	"/>
</g>
<g>
	
		<radialGradient id="SVGID_8_" cx="662.1499" cy="481.95" r="70.85" gradientTransform="matrix(1 0 0 -1 0 796)" gradientUnits="userSpaceOnUse">
		<stop  offset="0" style="stop-color:#B0FF2A"/>
		<stop  offset="1" style="stop-color:#75A900"/>
	</radialGradient>
	<polygon class="st7" points="614.8,303.7 614.9,308.6 610.9,312.5 607.7,314.8 609.3,317.1 608.6,321.4 606,324.5 605.8,325.3 
		606.4,325 611.4,323.1 615.2,323.3 618.8,324.5 625,323.7 632.1,321.5 632.9,322.1 631.3,331.3 631.9,334.9 631.6,341.1 
		632.1,343.4 634.5,341.5 639.8,338.6 638.3,344.4 638.2,346.2 639.4,351.5 640.8,355 642.3,361 647.2,364.8 649.6,365.6 
		649.4,370.7 647,374 646.7,373.9 646.1,374 644.3,376.2 647.9,382.7 647.9,385.7 649.4,390.2 649.2,392.5 650,396 651.1,396.3 
		653.6,395 661.6,395.7 665.5,396.9 665.5,396.9 666.3,392.7 664.5,392.1 661.7,392.7 661.3,391.4 662.5,389.9 663.2,385.2 
		658.3,382.8 660.6,380.7 664.8,379 666.9,373.8 670.2,372.4 669.4,365.2 671.7,370 676.9,366.5 681.6,358.8 682.9,361.1 
		688.9,358.2 689.1,357.5 687.4,353.7 688,353.7 688.5,349.3 685.2,351.8 685.8,349.1 685.6,346.5 687.1,339.8 686.7,335.3 
		688,329.4 689,326.7 694,318.8 698,318.9 695.4,311.4 697.8,314.8 700,317.1 704.4,318.1 705.1,319.1 714.8,319.1 717.9,316.6 
		718.5,313.1 715.7,313 713.4,308.8 709.6,305.5 706.9,304.8 706.7,303.8 695.6,294.6 693.9,290.2 692.4,289.4 694.5,288.7 
		694.7,287.3 698.6,283.1 695.9,278.5 692.4,275.1 688,269.4 690.3,267.8 686.1,267.2 689.1,266.3 687.8,264.4 679.9,258.9 
		683.5,256.3 683.5,255 679.3,253.5 678,250.3 685,249.5 683.6,246 687.7,250 689.8,249.8 691.4,248.2 688.7,246.3 690.3,245.8 
		687,243.4 688.3,242.8 681.9,237.9 682.5,236.4 677.6,232.3 668.7,232.8 666.6,231.9 665.1,232.7 662.7,231.2 659.8,233.7 
		655.9,232.2 653.8,232.2 651.4,234.1 650.9,233 648.1,231.3 643.8,236.8 643.4,239.9 641.7,242.9 642.9,245.2 642.3,250.6 
		643,253.4 642.2,255.5 642,261.6 639.7,265 638.4,265.7 636.2,264.4 633.4,271.3 632.4,272.5 632.8,275.4 634.8,275.5 635.5,277.9 
		633.7,278.5 630.9,281.2 629.8,281.3 629.1,283.2 626.4,284.8 626.9,289.1 628.3,289.3 628.1,292.3 625.3,293.4 624.3,298.7 
		621.2,303.8 618,302.2 	"/>
</g>
<g id="ID.JR">
	
		<radialGradient id="SVGID_9_" cx="467.1499" cy="288.65" r="25.4368" gradientTransform="matrix(1 0 0 -1 0 796)" gradientUnits="userSpaceOnUse">
		<stop  offset="0" style="stop-color:#B0FF2A"/>
		<stop  offset="1" style="stop-color:#75A900"/>
	</radialGradient>
	<polygon class="st8" points="494.5,505.9 492.4,505.9 488.4,504.7 487.3,498 485.6,496.9 483.9,494.4 483.8,492.1 480.3,491.6 
		479,494 477.9,494.1 473.8,491.7 469.9,491.8 464.7,489.6 460.8,484.9 458.4,485.6 456.5,484.1 454.5,488 454.3,488 453.7,492.9 
		453.2,494.5 449.5,493.7 449.2,493.4 449.1,494.7 448.6,495.5 442,494.6 441.2,498.9 441.4,503.1 440.5,510.4 441,509.7 
		443.4,510.2 443.4,511.9 439.7,516.6 440.1,519.8 442.5,520.6 455,521.8 465.3,524.6 470.3,527.7 472.9,528.7 483.6,530.6 
		484.9,528.2 491,527.1 491.3,526.9 490,525.4 489.7,520.3 486.4,517.4 487.4,514.3 490.3,513.8 491.9,512.1 492,510.6 494.6,506 	
		"/>
</g>
<g id="ID.JT">
	
		<radialGradient id="SVGID_10_" cx="520.5499" cy="284.6" r="31.7715" gradientTransform="matrix(1 0 0 -1 0 796)" gradientUnits="userSpaceOnUse">
		<stop  offset="0" style="stop-color:#B0FF2A"/>
		<stop  offset="1" style="stop-color:#75A900"/>
	</radialGradient>
	<path class="st9" d="M494.6,528.2l-3.2-0.8l1,1.1l4,1.2L494.6,528.2z M494.6,506l-2.6,4.6l-0.1,1.5l-1.6,1.7l-2.9,0.5l-1,3.1
		l3.3,2.9l0.3,5.1l1.3,1.5l0.2-0.2l4.3,1.8l0.8-0.7l6.9,0.3l11.4,3l2.7,1.2l0.2,0.1l2.8-5.5l2.1,1.2l4.1-3.8l0.6,3.9l6.2,3l0.2,7.1
		l0.8,1.7h0.1l1.7,0.5l0.3,0.1l1-3.1l3.8-3l2.9-0.9l0.8-2.5l-0.8-2.6l-1.6-0.6l1-10.8l0.4-0.4l4.7,1.5l3.4-3.6l0.5-5l1.9-5.6l0,0
		l-3.2-2.3l-1.7,1.2h-6.6l-1.5-5.6L539,496l-5.6,2.3l0.2,0.5l-2.8,7.8l-2,2.4l-2.3,1l-3.9-2.1l-0.1-0.8l-6.4,1.5l-3.6-1.4l-4.2-0.7
		l-0.8-0.8l-1.3,1.4l-1.8,0.4l-5.6-1.1l-1.5-1L494.6,506L494.6,506z M529.4,483l-0.6-0.8l0.2,0.8H529.4z"/>
</g>
<g id="ID.BE">
	
		<radialGradient id="SVGID_11_" cx="357.4999" cy="362.15" r="34.7416" gradientTransform="matrix(1 0 0 -1 0 796)" gradientUnits="userSpaceOnUse">
		<stop  offset="0" style="stop-color:#B0FF2A"/>
		<stop  offset="1" style="stop-color:#75A900"/>
	</radialGradient>
	<path class="st10" d="M355.5,473l0.6-1.6l-2.8-2.2l-2.1-0.8l-1.1,1.7l3.2,3.7L355.5,473z M335.7,395.3l-0.7,0.2l-0.9,0.7l-5.2,3.6
		l1.6,2.6l4.2,2.9l2.4,5.4l3,5.8l1.5,2.2l12.7,10.4l0.8,7.1l8.6,7.5l3.6,3.6l0.9,1.8l2.7,1.2l5.3,4.7l2.5,3.4l3.6,0.9l0.3,0.2
		l0.7-0.3l0.9-0.7l1.2-0.9l0.7-0.8l-0.1-0.5l-3.4-9.9l-4.1-1.2l-4.1-1.7l-0.9-4.5l-0.8-1.5l-2.7,0.4l-3.9-1.3l-3.5-4.1l1.5-0.6
		l6.5-5.1l0.4-4.1l-4.3-1.9l-3.7,0.9l-2.3-1.7l-1.8-5.3l-4.1-0.7l-0.1-2.1l-3-4l-0.5-0.7L351,407l-2.9-0.7l-3.9-2.7l-3.2-4l-1.5-4.3
		l-1.9-1.4L335.7,395.3z"/>
</g>
<g id="ID.BT">
	
		<radialGradient id="SVGID_12_" cx="431.3499" cy="298.85" r="15.7192" gradientTransform="matrix(1 0 0 -1 0 796)" gradientUnits="userSpaceOnUse">
		<stop  offset="0" style="stop-color:#B0FF2A"/>
		<stop  offset="1" style="stop-color:#75A900"/>
	</radialGradient>
	<path class="st11" d="M416.5,499l-2.8,1.5l-0.2,0.9l2.7,0.1L416.5,499z M440.5,510.4l0.9-7.3l-0.2-4.2l0.8-4.3l6.6,0.9l0.5-0.8
		l0.1-1.3H449l-1-2.2l-0.3-2.6l1.1-1.1v-0.3l-1.4-0.9l-6.5-0.4l-1.3-1.2l-4.1,0.7v-1.5l-2.4,0.1l-0.5,1.7l-3.4,6l-0.5,4.2l-1,2.7
		l-2.2-0.9l-1.3,1.4l-3.2,6.8l-2.9-3.4l-2.9,2.3l1.6,1.7l5.1,0.9l1.4-0.5l6.5-0.2l0.1-0.3l8.1,3.8L440.5,510.4L440.5,510.4z"/>
</g>
<g id="ID.JK">
	
		<radialGradient id="SVGID_13_" cx="450.9999" cy="305" r="3.4015" gradientTransform="matrix(1 0 0 -1 0 796)" gradientUnits="userSpaceOnUse">
		<stop  offset="0" style="stop-color:#B0FF2A"/>
		<stop  offset="1" style="stop-color:#75A900"/>
	</radialGradient>
	<polygon class="st12" points="454.3,488 451.1,488.6 450.1,488.6 448.8,487.7 448.8,487.5 447.7,488.6 448,491.2 449,493.4 
		449.2,493.4 449.5,493.7 453.2,494.5 453.7,492.9 454.3,488 	"/>
</g>
<g id="ID.KB">
	<radialGradient id="SVGID_14_" cx="556.3999" cy="352.8501" r="60.0957" gradientUnits="userSpaceOnUse">
		<stop  offset="0" style="stop-color:#B0FF2A"/>
		<stop  offset="1" style="stop-color:#75A900"/>
	</radialGradient>
	<path class="st13" d="M501.3,377.5l-1.4-0.9l-2,0.7l1,2.5L501.3,377.5z M515.4,362.9l-3.3,0.7l-0.9,6.1l4-0.6l2.1-0.9l1.4-3.9
		l-0.8-1.1L515.4,362.9z M543.6,409.7l1.9-2.3l2.1-1.4l0.2-8.1l-2.5-6.8l0.7-9l-2.4-3.1l2.9-2.8l1.2,0.4l9.6-8.1l1.2-3.1l3.3-3.2
		l8.1-5.2h2.6l11.2-2.4l8.8-4.1l1.6,2l1-1.5l-0.7-3.2l5-7.7l-1-3.9l-2.3-3.2l2.6-0.8l2.4,0.1l4.2-6.6l0.5-0.4l0.2-0.8l2.6-3.1
		l0.7-4.3l-1.6-2.3l3.2-2.3l4-3.9l-0.1-4.9l0,0l-6.4-0.1l-2.2,2.5l-3.3,2.6l-12.3-4.8l-2.9-3.5l-3.3,0.7l-7.2-0.6l-6.3,3l-1.6,7.2
		l-4.1,1l-1.8,2.6l-4.4-0.6l-2.5,1.8l-0.5-1.4l-6.2-1.5l-7.4,1.9l-2.8,2.5l-3.6,1.1l-2.9-1.4l-1.6-1.9l-1.9-0.2l-2.4-4.6l-1.3-0.2
		l-3.1-3.2l-0.5-1.4l-2.3-1l-3.3-3.8l-0.7-4.6l-2.5-3.8l-3.9-0.8l-1.5,4.2l1.3-1l-5.3,6.3l-2.2,8.5l3.7-1.2l-5,3l1.3,4.5l-2.7,3.1
		l2,9.5l-0.3,3.2l3.7,1.7l4.3,5.7l-3.1-0.2l1.5,6.3l-1.1-0.6l-1.6,1.2v2.6l3.8,5.3l3.1,0.7l1.6,2.5l-5.1-1.2l0.2,4.6l5.5,0.2
		l8.8,6.1l-0.2,2.8l2.5,2l0.4,3.1l-0.8,5.2l-0.7,1.6l-2,1.7l0.8,2.3l2.6,1.2l0.3,7.7l1.2,3.4l2.2,4.4l-2.1,1.9l1.5,4.5l-0.9,2l2,2.5
		l4.5-3.1l2.4,0.9l0.8,4.2l2.6-3l3.9-2L543.6,409.7z"/>
</g>
<g id="ID.LA">
	
		<radialGradient id="SVGID_15_" cx="407.4999" cy="338.35" r="25.7899" gradientTransform="matrix(1 0 0 -1 0 796)" gradientUnits="userSpaceOnUse">
		<stop  offset="0" style="stop-color:#B0FF2A"/>
		<stop  offset="1" style="stop-color:#75A900"/>
	</radialGradient>
	<path class="st14" d="M408.4,481.4l-1.4-1.7l-0.2,0.3L408.4,481.4z M386.1,456.8l-0.7,0.8l-1.2,0.9l-0.9,0.7l-0.7,0.3l0.2,0.1
		l1.6,0.8l0.7,1.6l5.4,5.6l-0.1,1.2l3.2,4.4l2.4,1.6l0.7,2.5l3.2,2.7l2.2,4.3h3l0.1-10.3l8.2,5.8l2.7,0.7l-0.2-4.7l1.1-0.1l1.2-3.3
		l4.1,5.3l4.9,4.6v1l2.8-7.2l-0.2-1.6l2.6-15.2l-0.7-3.1l0.6-8.8l-0.9-6.5l0,0l-4.8-2.5l-0.1-2.1l-5.9-5.3l-1.6,3.8l-1.9,0.6
		l-1.7,3.5l-2.5,2.7l-2.9,0.8l-11.7,5.4l-1.1,5.6l0.9,5l-5.3,1.8l-5.5-2.7L386.1,456.8z"/>
</g>
<g id="ID.SL">
	<radialGradient id="SVGID_16_" cx="394.1999" cy="420.6002" r="41.335" gradientUnits="userSpaceOnUse">
		<stop  offset="0" style="stop-color:#B0FF2A"/>
		<stop  offset="1" style="stop-color:#75A900"/>
	</radialGradient>
	<polygon class="st15" points="351.2,407.2 351.7,407.9 354.7,411.9 354.8,414 358.9,414.7 360.7,420 363,421.7 366.7,420.8 
		371,422.7 370.6,426.8 364.1,431.9 362.6,432.5 366.1,436.6 370,437.9 372.7,437.5 373.5,439 374.4,443.5 378.5,445.2 382.6,446.4 
		386,456.3 386.1,456.8 387.3,457.5 392.8,460.2 398.1,458.4 397.2,453.4 398.3,447.8 410,442.4 412.9,441.6 415.4,438.9 
		417.1,435.4 419,434.8 420.6,431 426.5,436.3 426.6,438.4 431.4,440.9 431.5,440.5 432.5,437.1 434,434.8 434,432.2 432.3,430.7 
		433.2,423.6 435.9,419.9 437.2,415.7 436.8,412.1 433.6,411.3 431.8,409.1 432,405.8 429,403.9 428.1,402.1 420.8,396.5 416,397 
		412.9,395.2 410.3,397.7 405.5,404.1 408.7,401.7 409.1,396.4 411.4,394 412.6,391.1 411.2,388.2 405.9,384.5 404.1,385.1 
		405.3,381.6 405.2,381.5 401.9,381 401.2,382.6 398.8,383.8 391.2,383 383.5,387.2 383.8,393 381.6,394 381.4,397.9 376.5,392.6 
		375.4,394.7 376,397.1 372.7,397.1 368.7,399.3 367.1,401.9 359.5,405.9 355.5,403.7 354.9,404.8 352.1,406.2 	"/>
</g>
<g id="ID.BB">
	
		<radialGradient id="SVGID_17_" cx="452.1499" cy="399.0499" r="28.2769" gradientTransform="matrix(1 0 0 -1 0 796)" gradientUnits="userSpaceOnUse">
		<stop  offset="0" style="stop-color:#B0FF2A"/>
		<stop  offset="1" style="stop-color:#75A900"/>
	</radialGradient>
	<path class="st16" d="M454.9,413.2l1.1-1.9l-2.6-1.3l-1.6,1.7L454.9,413.2z M459.9,410.1l-1-1.5l-0.3,1.2L459.9,410.1z
		 M468.6,409.5l-3.3,0.2l1.4,1.5L468.6,409.5z M476.5,401.5l-2.9,0.1l-1.7,3.2l-0.9,4.6l-1.3,1.1l1.9,5.2l-0.8,1.1l1.7,0.6l3.4-1.3
		l0.7-2.3l2,2.4l0.3,2.2l2-0.3l0.4-1.6l2.6-0.7l2-7l-0.5-2.2l-1.7-2.1L476.5,401.5z M434.4,375.5L431,377l0.6,3.7l1.3,2.2l-2.5-0.7
		l-0.9-1.4l0.9-0.9l-1.7-3.2l-3.3,0.6l-2.8,3.3l1.3,1l-2.2,3.3l-2.5,1.1l-0.8,4l3.4,1.3l5.6-1.7l0.9,1.2l3,0.5l1,0.9l0.6,5.5
		l2.4,2.5l-1,3.2l2.1,5l6.4,2l2.4,1.3l1.9,2l5.1,0.8l-0.4-2l-2.5-2.2l1.7-5.1l2.8-2.8l-2.5-1.3l-6.2-1.3l-4-7.4l-0.4-7.4l-2.9-4.9
		l-1.1-3.4L434.4,375.5z"/>
</g>
<g id="ID.BA">
	
		<radialGradient id="SVGID_18_" cx="626.0999" cy="249.6" r="11.5572" gradientTransform="matrix(1 0 0 -1 0 796)" gradientUnits="userSpaceOnUse">
		<stop  offset="0" style="stop-color:#B0FF2A"/>
		<stop  offset="1" style="stop-color:#75A900"/>
	</radialGradient>
	<path class="st17" d="M635.8,551.6l-2.3,1.2l1.8,1.9l1.4-0.8L635.8,551.6z M635.2,539.3l-3.5-1.7l-4.3-0.7l-1.7,1.7l-4.5,1.2
		l-7.9-2.5l-0.5,3.1l1.5,2.9l1.8,1.6l3.4,0.1l5.8,4.4l-0.1,5.7l0.8,0.8l2.1-0.5l1.1-3.2l2.2-2.5l5.4-2.3l2.6-3.1L635.2,539.3z"/>
</g>
<g id="ID.JI">
	
		<radialGradient id="SVGID_19_" cx="591.0499" cy="279.1501" r="46.5912" gradientTransform="matrix(1 0 0 -1 0 796)" gradientUnits="userSpaceOnUse">
		<stop  offset="0" style="stop-color:#B0FF2A"/>
		<stop  offset="1" style="stop-color:#75A900"/>
	</radialGradient>
	<path class="st18" d="M617.9,514.2l-1.8-0.7l-0.8,0.4L617.9,514.2z M645.4,513.6l-3.4,0.7l2,1.1L645.4,513.6z M613,513.8l-2.1-1.9
		l-0.2,2.2L613,513.8z M604.6,507.6l-10.1,0.4l-1.7-0.3h-8.2l-4.9,0.6l-3.4,3.7l0.5,2.5h2l6.6,1.7l0.5-1.6l2.6,1.3l6,0.4l0.8-2
		l1.9-1l4.5,0.4v-0.8l2.5-1.8l3.1-1L604.6,507.6z M634.6,506.5l-2.7,0.7l0.9,2.5l0.9-0.9l5,0.1l-2.3-2.2L634.6,506.5z M554.7,504
		l-1.9,5.6l-0.5,5l-3.4,3.6l-4.7-1.5l-0.4,0.4l-1,10.8l1.6,0.6l0.8,2.6l-0.8,2.5l-2.9,0.9l-3.8,3l-1,3.1l1.1,0.6l2.4-1l1.3,1.8
		l1.8-0.6l5.6,1.8l1-0.4l2.8,1.4l2-2.7l2.5,0.8l1.4-0.4l5.2,1.1l5,1.7l8.4-0.4l2.2,0.1l1.2-1.4h7.8l6.7,4.2l2.9,0.2l0.9,1.3l5.3,2
		l3.4-0.6l2.6,1.3l0.1,0.8l4.3,1.9v-2.7l-3-1.5l-0.8-2.1l-0.5-4l2.3-8.4l0.4-5.4l-3.6-2.1l-4.8-2.3l-2.6,1.7l-3.1,1.1l-6.8-0.1
		l-3.9,1.6l-6.8-3.5l-4.4-2.8l1.2-3l0.3-4.3l-2.4,0.5l-0.2-1.9l-1.4-2.4l-0.3-5.1l-1.9,1l-0.9-0.9l-6.6,0.9L563,508l-1.8-2.7
		l-3.7,0.4l-2.4-1.1L554.7,504z M578.5,479.6l-2.9,1.4l0.4,1.3l2.5-0.1V479.6z"/>
</g>
<g id="ID.KS">
	
		<radialGradient id="SVGID_20_" cx="640.5497" cy="388.95" r="29.9059" gradientTransform="matrix(1 0 0 -1 0 796)" gradientUnits="userSpaceOnUse">
		<stop  offset="0" style="stop-color:#B0FF2A"/>
		<stop  offset="1" style="stop-color:#75A900"/>
	</radialGradient>
	<path class="st19" d="M660.5,428l1.1-5.4l-2.3,2.5L660.5,428z M654.3,437.8l4.2-3.4l-0.4-1.3l-0.2-11.6l0.5-3.3l-3.5,2.3l-1.8,4.2
		l-0.8,5.6l1.2,2.4l-0.7,5.3L654.3,437.8z M646.7,373.9l0.2-1l-5.9,1.5l-1.4,10.7l-1.2,2.7l0.4,1.1l-3.9,3.9l-6,2l-0.4,5.8l-1,1.2
		l-1.9,4.2l-2.9,2.3l-1.5,0.4l-1.7,3.9l-3.9,10.6l1.3,0.6l2.5,0.7l0.4-2.6l1.1-0.9l-0.7,3.2l1.8,13.1l-0.3,3.9l21.1-9.6l6.7-4h1.4
		l1.2-1.8l0.3-2.2l3.6-6.8l2.2-0.9l-3.1-5.1l0.6-1.5l2.6,3.3l0.5-0.4l2.7-10.1l-1.9-1.2l1.3-0.5l3.8,0.2l0.8-3.7l-3.9-1.2l-8-0.7
		l-2.5,1.3L650,396l-0.8-3.5l0.2-2.3l-1.5-4.5v-3l-3.6-6.5l1.8-2.2L646.7,373.9z"/>
</g>
<g id="ID.NT">
	
		<radialGradient id="SVGID_21_" cx="774.8999" cy="223.5" r="53.9485" gradientTransform="matrix(1 0 0 -1 0 796)" gradientUnits="userSpaceOnUse">
		<stop  offset="0" style="stop-color:#B0FF2A"/>
		<stop  offset="1" style="stop-color:#75A900"/>
	</radialGradient>
	<path class="st20" d="M788.6,606.7l2-0.4l5.9-2.8l4.3-4.6l-0.1-4.2l-7.9,6.8l-5.3,2.3l-0.1,2.2L788.6,606.7z M769.5,594.7l-5.3,2.9
		l0.5,1.2l2.7,0.1l3.4-3.3L769.5,594.7z M802.7,589.4l1.1-1.1l-2.5,0.1L802.7,589.4z M730.3,568.4l-4.7,0.6l-7.3-0.6l-10.5,2.9
		l-1.1,1.9l9.6,5.8l0.4-0.7l5.4,0.9l2.3,2.7l2.4,0.9l2.4,4.1l2.3,2.6l5,1.1l1.6,1.1l2.3-2l3.1-0.5l3.2-3.8l-0.1-0.9l-2.7-2.7
		l-2.2-4.2l-2.8-2.5l-2.4,0.9l-1.2-0.7l-3.9-4.9L730.3,568.4z M837,561.4l-0.1-2.1l-2.9,0.8l-2.7,1.9l-4.9,2l-3.4,7.4l-1.5,0.1
		l-0.7-2.6l-1.8,1l-3.7-0.9l-6.3,5.6l-3,8.1l0.3,2.7l1.7-0.7l-0.6,2.9l-2.7,1.1l-1.8,4.4l7.4-0.1l2.5-1.7l11.5-3.6l5.4-5.3l1.2-0.8
		l2.8-3.7l3.1-2.4l0.3-1.8l1.8-2.2l-1.7-6.7l4.2-0.7l-0.2-4.2l-1-0.5L837,561.4z M724.4,551.2l0.2,3.5l2.3-4.3L724.4,551.2z
		 M720.2,546.8l-1.1-0.9l-1,3.1l-0.2,4.2l1.6-0.3l1-2.8l2.1-1.2l-0.7-2L720.2,546.8z M800.2,545.7l-5.8,2l-0.7,1.7L800.2,545.7z
		 M803.1,541.1h-2.9l-2.7,2.1l-0.5,1.5l4.9,0.3l1.8-0.9L803.1,541.1z M817.2,541.1l-3-1.6l-4.9,3.1v1.6l-1.2-0.2l1-2.8l-4.4,1.6
		l2.4,0.4l-5.8,4.8l6.7,1l2.4-3.8l1.9-0.5L817.2,541.1z M823.2,544.4l0.3-4.2l-3.2,4.1l-1-1.7l-3.2,3.6l2.4-0.6l1.7,3.1l2.2-2.2
		L823.2,544.4z M830.9,538.3l-4,3.3l1.7,0.1l-2.8,4.6l6.1-1.2l10.6-1.4l0.6-2.9l-0.7-1.5l-9-0.2l-1.9,1.1L830.9,538.3z M796.7,539
		l-4.5,0.1l-0.8,1.1l4.3,0.2l-5.8,4.1l-4.4,2.2l-1.1,3.2l-3.6,0.7l-5.3-4.2l-9.1,0.4l-5.1,2.3l-1.8-2.3l-10-3.8l-1.5,0.2l-5.5-1.3
		l-4.4-0.2l-4.2,3.2l-2.3,1.1l-2.6-0.8l-0.1,2l-1.7,2.5l-0.2,3.5l1.8,1.7l1.7,0.1l4.6-0.9l2.9,1.3l6.1-0.7l0.8,1.1l2.6,0.5l1.8-0.9
		l1.1,2.1l1.9,0.6l2.9-0.7l4.6,0.2l0.8-2.4l2.8-0.1l6.2,1.7l4.8-2.1l2.4-1.7l8.7-0.5l1.2-1l3.4-0.8l2.9-2.1l-0.3-2.8l1.1,0.6
		l0.8-2.4l2.7-1.1L796.7,539z"/>
</g>
<g id="ID.SE">
	
		<radialGradient id="SVGID_22_" cx="750.35" cy="346.6999" r="49.9752" gradientTransform="matrix(1 0 0 -1 0 796)" gradientUnits="userSpaceOnUse">
		<stop  offset="0" style="stop-color:#B0FF2A"/>
		<stop  offset="1" style="stop-color:#75A900"/>
	</radialGradient>
	<path class="st21" d="M750.2,512.4l-1.9-1.6l0.1,3.5l2.2-0.5L750.2,512.4z M745.6,497.6l1.3-7.3l0.6-1.5l-1.9-6.6l-0.7,9.4l0.5,1.2
		L745.6,497.6z M737.2,386.9l-1.1,2.2l-3.9,3.2l0.4,3.7l1.3,1.7l-0.1,3.2l1,4.1l-1.3,1.1l-4.6,0.5l1.1,9.3l-3.1,1.2l0.8,7.3l0.1,0.1
		l-0.8,4.4l0.5,3.1l1.8,5.7l-0.6,13.2l-2,8.6l-2.8,5.1l-0.7,2.1l-0.6,4.6l1.2,4.3l4.5,1.1l0.2,1.5l2.6,0.5l3-3l4.7,0.3l5-1.9
		l1.4,2.6h1l-3.7-11.5l1.1-3.8l2.2-4.5l1.3-4l-1.5-5.5l0.6-6.3l-0.5-1.6l0.2-4.2l1.8-6.4l-0.4-11.3l-2.1-1.1l-1.6-5l8.5-6.8l9.1-0.5
		l1.6,2.4l-2,1.3l2,2.3v0.1l1.7-0.9l2.4,0.1l4.2,3.5l1.3-0.3l1.4-0.9l0.4-0.3l3.8-4.5l0.1-2.6l-0.9-1.4l-4.1-3.1l-1.2-1.6l-14.7-4.4
		l-5.3-5.3l-2.6-4.3l-7.1,0.1l-4.2,2.1L737.2,386.9z"/>
</g>
<g id="ID.SR">
	
		<radialGradient id="SVGID_23_" cx="724.8499" cy="403.05" r="25.2797" gradientTransform="matrix(1 0 0 -1 0 796)" gradientUnits="userSpaceOnUse">
		<stop  offset="0" style="stop-color:#B0FF2A"/>
		<stop  offset="1" style="stop-color:#75A900"/>
	</radialGradient>
	<polygon class="st22" points="736.8,386.9 736.2,385.2 736.7,382.9 733.8,377.3 732.5,373.1 730,372 730.1,369 731.5,368 
		731.1,359.4 730.5,359.8 728.4,366.3 727.4,366.8 725.1,373.6 725.2,380.5 726.3,384.3 725.8,387 723,388.2 720.9,394.3 
		720.9,399.1 715,404 713,404.9 712.5,407.5 713.6,408.7 714.5,411.8 713.9,414.3 712.8,414.1 715.9,426.5 717.6,425 721.6,424.5 
		724.6,423.1 727.6,424.4 727.7,424.4 726.9,417.1 730,415.9 728.9,406.6 733.5,406.1 734.8,405 733.8,400.9 733.9,397.7 732.6,396 
		732.2,392.3 736.1,389.1 737.2,386.9 736.8,386.9 	"/>
</g>
<g id="ID.KR">
	
		<radialGradient id="SVGID_24_" cx="439.0999" cy="507.3" r="63.2388" gradientTransform="matrix(1 0 0 -1 0 796)" gradientUnits="userSpaceOnUse">
		<stop  offset="0" style="stop-color:#B0FF2A"/>
		<stop  offset="1" style="stop-color:#75A900"/>
	</radialGradient>
	<path class="st23" d="M406,348.7l-1.1-1l-4.6,1.1l-0.7,1.5l2,2.9l0.2,2l1.4-2.1l1.2,0.9l2.7-3.7L406,348.7z M404.8,346.5l-0.3-0.9
		l-1.2,0.2L404.8,346.5z M406.9,338.8l-3.2,5.4l1.9,1.4l4-1.5l4.8,3L414,346l2-0.1l-3.5-3.5l-1.3,1.4L406.9,338.8z M403.7,335.4
		l-0.9,0.7l1.3,1.7L403.7,335.4z M405.2,333.3l3.8,4.8l0.1-0.9L405.2,333.3z M400.3,323l-0.4-0.6l0.2,1.2L400.3,323z M410.3,321.3
		l-0.5-0.7l-0.1,0.3L410.3,321.3z M407.5,319.9l-2.4,0.1v0.6L407.5,319.9z M400.1,319.7l-0.9,1.7l0.4,0.3L400.1,319.7z M392.8,320
		l-1-1.9l-1.7-0.7L392.8,320z M382.4,322.8l1.1-2l-3.4-3.2l1.7,5.5L382.4,322.8z M390.6,320.1l-0.5-1.8l-1.2,0.9L390.6,320.1z
		 M397.8,317.3l-1.7-1.2l1.4,2.8l2.3-0.9L397.8,317.3z M392,314.3l-1.1,0.9l2.4,0.2L392,314.3z M412.2,315.5l-0.9-1.8l-0.2,0.2
		L412.2,315.5z M381.9,314.1l-2.6-1.9l0.8,2.2L381.9,314.1z M397.3,311l-4.5,0.4l0.2,2.8l2.1,0.6L397.3,311z M406.8,309.6l-7.3,2.2
		l0.4,2.6l3.9-1.4l-0.5,2.1l3,3.5l0.7-0.1l1.4-4.8L406.8,309.6z M441.6,271.9l-0.6-2.1l-0.3,0.1L441.6,271.9z M497.9,269.1l1-1.3
		v-1.9L497.9,269.1z M474.5,265.9l0.9-0.1l-1.3-0.7L474.5,265.9z M431.4,266l-1.4-0.3l-0.1,3.4l2.3-1.3L431.4,266z M441.2,259.9
		l-0.7,0.5l1.2,2.2l0.5-1.6L441.2,259.9z M485.1,238.8l-1.9-3.9l-5,5.7l6.2,5.4l0.2,1.3l-3.7,1.1l2.2,1l3.9-3.8V241L485.1,238.8z
		 M477.7,224l-0.1-1.8l-0.3,0.7L477.7,224z"/>
</g>
<g id="ID.GO">
	
		<radialGradient id="SVGID_25_" cx="791" cy="473.4" r="18.9411" gradientTransform="matrix(1 0 0 -1 0 796)" gradientUnits="userSpaceOnUse">
		<stop  offset="0" style="stop-color:#B0FF2A"/>
		<stop  offset="1" style="stop-color:#75A900"/>
	</radialGradient>
	<polygon class="st24" points="807.5,316.2 805.5,315.5 803.7,317.9 801.3,318.2 797.7,315.5 788,313.8 788,313.8 780.3,315.2 
		777.7,316.4 769.6,318.1 767.3,321.2 765.7,322.2 769.6,325.4 769.5,327.6 769.6,327.6 773.2,327 773.7,325.8 777.2,326.1 
		779.1,328.4 783.6,328 784.7,327.2 790.9,326.8 806.2,326.9 815.2,331.4 815.5,331.3 816.3,326.9 815.9,325.3 810.8,321 
		809.9,318.5 807.5,316.2 	"/>
</g>
<g id="ID.JA">
	
		<radialGradient id="SVGID_26_" cx="368.1999" cy="413.7499" r="31.5555" gradientTransform="matrix(1 0 0 -1 0 796)" gradientUnits="userSpaceOnUse">
		<stop  offset="0" style="stop-color:#B0FF2A"/>
		<stop  offset="1" style="stop-color:#75A900"/>
	</radialGradient>
	<polygon class="st25" points="405.2,381.5 403.6,376.5 403.7,372.8 402.2,364.3 400.9,364.3 393.1,362.9 391.4,363.5 390.3,365.3 
		384.6,360.4 381.9,357.3 381.9,357.3 368.2,358.4 363.7,363.5 358.4,363.7 355.1,360 351,360.6 348.1,363.5 345.7,364.4 346,365.1 
		346.7,368.6 343.4,371.8 343.8,373.2 342.7,376.8 339.1,380.7 333.7,381.3 331.2,380.8 331.5,384.7 335,392.4 335.7,395.3 
		337.6,393.9 339.5,395.3 341,399.6 344.2,403.6 348.1,406.3 351,407 351.2,407.2 352.1,406.2 354.9,404.8 355.5,403.7 359.5,405.9 
		367.1,401.9 368.7,399.3 372.7,397.1 376,397.1 375.4,394.7 376.5,392.6 381.4,397.9 381.6,394 383.8,393 383.5,387.2 391.2,383 
		398.8,383.8 401.2,382.6 401.9,381 405.2,381.5 	"/>
</g>
<g id="ID.KT">
	<radialGradient id="SVGID_27_" cx="594.2999" cy="374.0001" r="53.9182" gradientUnits="userSpaceOnUse">
		<stop  offset="0" style="stop-color:#B0FF2A"/>
		<stop  offset="1" style="stop-color:#75A900"/>
	</radialGradient>
	<polygon class="st26" points="647,374 649.4,370.7 649.6,365.6 647.2,364.8 642.3,361 640.8,355 639.4,351.5 638.2,346.2 
		638.3,344.4 639.8,338.6 634.5,341.5 632.1,343.4 631.6,341.1 631.9,334.9 631.3,331.3 632.9,322.1 632.1,321.5 625,323.7 
		618.8,324.5 615.2,323.3 611.4,323.1 606.4,325 605.8,325.3 605.3,325.7 601.1,332.3 598.7,332.2 596.1,333 598.4,336.2 
		599.4,340.1 594.4,347.8 595.1,351 594.1,352.5 592.5,350.5 583.7,354.6 572.5,357 569.9,357 561.8,362.2 558.5,365.4 557.3,368.5 
		547.7,376.6 546.5,376.2 543.6,379 546,382.1 545.3,391.1 547.8,397.9 547.6,406 545.5,407.4 543.6,409.7 543.7,410.1 539.5,412.1 
		539,413.2 543.1,414.8 545.7,414 550.9,411 555.6,411.6 555.9,412.8 558.5,411.6 562.2,413 561.9,417.2 562.3,421.4 561.7,425.9 
		563.5,426.5 568.2,421.9 570.1,420.6 574.2,420.8 577,423.2 580.2,422 588,416.5 588.5,410.6 589.8,413.6 595,419.2 598.5,416.7 
		600.4,416.7 601.3,418.8 601,423.7 604.9,423.7 609.9,421.2 611.5,417.6 613,421.9 614.4,421.3 615.2,422.9 615.6,423.2 
		619.5,412.6 621.2,408.7 622.7,408.3 625.6,406 627.5,401.8 628.5,400.6 628.9,394.8 634.9,392.8 638.8,388.9 638.4,387.8 
		639.6,385.1 641,374.4 646.9,372.9 646.7,373.9 	"/>
</g>
<g id="ID.IB">
	
		<radialGradient id="SVGID_28_" cx="1009.85" cy="418.05" r="62.185" gradientTransform="matrix(1 0 0 -1 0 796)" gradientUnits="userSpaceOnUse">
		<stop  offset="0" style="stop-color:#B0FF2A"/>
		<stop  offset="1" style="stop-color:#75A900"/>
	</radialGradient>
	<path class="st27" d="M1013.2,422.9l0.3,2.3l0.3-0.3L1013.2,422.9z M990.5,404l1.3-1h-0.4L990.5,404z M1032.7,398.8l0.4,1.8l1-1.1
		L1032.7,398.8z M1054.9,399l0.4-0.8l-1.2-0.6L1054.9,399z M1051.1,391.7l1-3.2l-1-0.3V391.7z M1047.2,386.1l0.9-4.4l-1.3,2.1
		L1047.2,386.1z M964.4,380.5l-3,1l-1.8-0.2l-8.6,3.4l2.7,2.9l4.6,1l0.8,1l5.4-1.3l1.4-1.2l-0.5-4.5L964.4,380.5z M956,367.8
		l-4.1-0.1l-0.2,0.9L956,367.8z M977.2,361.7l-6.2,1.5l0.9,0.9l1.2,4.9l5,3l1.2-3l-0.1-7.6L977.2,361.7z M975.2,357.8l-6.2,1.6
		l-2.3-0.4l-0.2,2.4l3.9-0.2l3.1-0.7L975.2,357.8z M972,350.3l-0.4-0.8l-4.5,2.3l3.9,0.1L972,350.3z M954.7,351.1l0.1-2.1l-1.1,0.9
		L954.7,351.1z M1059.6,443.3l9.1-12.2l-21.4-8.8l1.8-5.1l2.1-1.9l5.6-6.8l0,0v-6.7l-0.7-1.6l-2.8,0.5l-0.5,1.5l1,6.3l-1.5,0.6
		l-2.6-8.3l-2.3-2.8l-1.1-2.1l-0.8-4.6l0.5-2.2l-0.6-7.5l2.7-4.8l1.4-4.7l-3.2-5l-1.9-4.6l1.1-1.7l-2.3-4.1l-4.1-0.1l-1,0.8
		l-7.6-0.7l-5.3-4.7l-5.2-1.9l-4.2-2.3l-6.8-0.2l-5.3,2.1l-5.3,4.8l-0.5,1.2l-2.3,0.9l-5.6,1.1l-0.1-0.8l-6,2.2l0.2,6.4l-2.2,3.5
		l-1.8,0.3l-2.5,5.1l4.4,0.6l0.7,1.3l3-1.7l-1.2-1.9l2.5,0.9l-0.2,0.9l3.6,0.7l5.4,3.2l3.8-1.7l-2.1,2.8l2.9,1.3l-1.6,2.2l-0.3,2.2
		l2.7,5.4l3,1.5l1.9,2.4l6.7-1.3l0.5,1.6l4.4-0.7l1.3,0.7l5.9-1.5l7.8,0.5l8.9-3.2l-2.6,4.6l2.9-1.8l-2,2.8l2.5,1.8l-5.1,1.4
		l1.6,2.1l-1.4,0.4l-1.1-1.3l-0.9,1.8l-4-1.7l-0.6,2.9l-0.3-3.5l-0.9,4.1l-0.6,0.4l0.3-3.7l-2.8-2.7l-4.9,1.6l-4.1,5.8l-3.1,2.4
		l-2.7-2.4l-3.6,0.7l-2.3-1.7l-4.1,0.5l1.3,0.7l-3.8,0.8l-0.9,4.2l2.7,0.7l5.7,0.7l2.3,1.5l3.2,4.1l-0.6,0.6l2.8,2l1.6-1l0.3,4.4
		l0.8,4.5l-2.6-0.4l-0.6,1.3l1.7,6.3l-0.7-0.3l2.5,4.1l2.6-0.6l3.8,0.3l5.5-5.3l-0.8-3.5l4.1-4.3l-0.8-3l2.6-1.5l0.3-5.9l3.5-4.6
		l0.9-0.3l1,5l-2.9,0.1l-1.7,2.5l-1.7,5.6l1.3,3.7l1.9,1.9l1-1.2l2.2,4.8l3.7-0.9l1.4,0.7l-1.2,1.9l3.6,2.8l0.6-3.7l3.6,3.6l1.7-0.2
		l4.1-2.2l4.3,0.8l-6.3,0.3l-0.9,3.8l1.6,0.6l2.8,2.7L1059.6,443.3z M960.4,341.2l0.1-0.7l-0.9-0.6L960.4,341.2z M975,339.1l-6.8,1
		l-4.6,2.9l2.7,0.9l-2.6,0.2l3.3,1.5l1.5-0.3l1.8,1.4l1.7-0.6l3.9,3.4l1.6-1.8l-4.8-3.4l-2.3-3l1.8-0.4l6.1,6.9l2.6-0.9l3.4,1.5
		l0.9-5.5l-1.8-0.5l-3.3-2.2L975,339.1z M1051,320.9l-0.3-0.7l-0.4,0.8L1051,320.9z M984.3,313.2v-0.6l-0.2,0.2L984.3,313.2z"/>
</g>
<g id="ID.SU">
	
		<radialGradient id="SVGID_29_" cx="280.3" cy="502.5" r="49.4187" gradientTransform="matrix(1 0 0 -1 0 796)" gradientUnits="userSpaceOnUse">
		<stop  offset="0" style="stop-color:#B0FF2A"/>
		<stop  offset="1" style="stop-color:#75A900"/>
	</radialGradient>
	<path class="st28" d="M274.7,351.5l-2.6-3.2l-0.8,3.4l1.3,1.4L274.7,351.5z M276.3,345.8l-3.3-6.6h-2.4l4.7,7.6L276.3,345.8z
		 M277.8,334.7l4.7,2.2l-0.8-1.9L277.8,334.7z M250.4,301.8l-1-0.3l-1.1,2.3h-3.2l-1.3,1l7.2,11h1.8l2.1,2.1l3.4,6.7h1l2.4-3.2
		l0.3-4.6l0.7-1.4l-1-2.4l-1.2-0.3l-3.1-2.8l-3.9-6L250.4,301.8z M267.8,233.9l-4.4,0.9l-1.4,7l-4.3,5.9l3,5.7l1.5,4.7l-1.4,2.4
		l0.9,2.1l-1,1.1l0.7,4l1.9,1.6l1.5,4.1l1,11.9l1.1,0.8l4.3,3.7l4.1,1.7l6,6.1l-0.8,3.4l-1.2-0.4l4.6,11l3,12.2l1.1,0.4l1,8.4
		l0.2,0.2l4.1-5.4l4.2-2l3.2,1.3l5-0.6l-0.6-2.2l-3.1-6.2l9,2.9l0.2-0.2v-0.7l1-8.2l-1.7-2.5l-1-4.7l5.3-2.7l2-2.2l-0.2-1.3
		l-3.2-6.2l0.5-3.8l-1.1-6.8l0.6-4.9l0,0l-3.7-3.5l-0.5,2.3l-2.3-3.2l-1-0.3v-5l-2.7-1.5l-2.4-4.2l-4.2-1.6l-6.4-5.8l-6.5-4.3
		l-4-1.6l-1.9-2l-0.9-2.7l-2.6-2.1l-6.5-4.3l-1.3,1.1L267.8,233.9L267.8,233.9z"/>
</g>
<g id="ID.RI">
	<radialGradient id="SVGID_30_" cx="349.7999" cy="320.4" r="42.1906" gradientUnits="userSpaceOnUse">
		<stop  offset="0" style="stop-color:#B0FF2A"/>
		<stop  offset="1" style="stop-color:#75A900"/>
	</radialGradient>
	<path class="st29" d="M388.9,347.5l-0.5-1.6l-2.3-1.2l-2.3,0.3l-1.3,3L388.9,347.5z M369.8,332l0.8-0.9l-1.6,0.7L369.8,332z
		 M374.2,324.8l-1-1.9l0.5,1.5L374.2,324.8z M376.4,326.4l2.5-0.9l-0.1-1.9l-1.4-1.9l-1.5,1l-0.5,2.2L376.4,326.4z M374.7,320.9
		l0.2-1.4l-0.6,1.7L374.7,320.9z M364.7,314.5l-2.6-3.5l-0.8,4.9l-1.8,1.7l2.4,2l9,0.5l1.1,1.2l1.3-2.5l-2.9-2.6l-3.2-2L364.7,314.5
		z M373.1,313.4l-5.1-2.9l-2.1,0.6l-1.2,3.2l3.1-0.6l7.4,4.8l0.8-0.6L373.1,313.4z M360.8,315.4l-0.4-2.2v-5.3l-4.4-3.6l-0.6,4.3
		l1.1,5l1.4,1.8C357.9,315.4,360.8,315.4,360.8,315.4z M355.6,300.5l-3.6-1.3l-1.4,0.9l7.1,4.2l3.3,3.5l0.1-5.3L355.6,300.5z
		 M344.2,288.5l-1.6-1.7l-4.9,2.1l-0.5,2.8l3.1,5.2l3.9-1.5V288.5z M313.4,276.4l-0.6,4.9l1.1,6.8l-0.5,3.8l3.2,6.2l0.2,1.3l-2,2.2
		l-5.3,2.7l1,4.7l1.7,2.5l-1,8.2v0.7l0.5,0.5l-0.7,2.2l2.3,4.8l5.3,0.2l6.9,5.7l-0.3,6.4l-1.4,0.3l2.3,6.4l3.1,1.9l0.8,1.8l4.2,5.6
		l7.4,6l3.9,1.7l0.2,0.5l2.4-0.9l2.9-2.9l4.1-0.6l3.3,3.7l5.3-0.2l4.5-5.1l13.7-1.1v-0.1l-2-1.2l5.4-6.6l-1.6-0.8L380,348l3.2-2.8
		l-4.2-0.4l3.6-1.3l1.7-1.7l0.5-2.4l5.3-0.6l-1.1-5.7l-1.1-1.8l-2.3,0.1l-2.7-4.2l-2.6-1.4l-3.5,1.7l-1.2,1.7l-8.7,4.2l-1-0.1
		l-2.5,1.8l-0.9-1l3.8-1.4l7-4l1-2.4l-4.5-5.1l-7.1-0.3l-1.9-0.9l-4.9-5.1l-1.1-3l-1.1-6.2l-2.7-2l-5.3-5l-7.7-1.6l-1.7-3.7
		l-6.3-8.8l-0.5-1.8l-5.1,1l0.3,3.3l1.4,2l1.5,5.1l-2.1-4.2l-4.2-3.3l-2.3-0.6l-4-4.9L313.4,276.4L313.4,276.4z"/>
</g>
<g id="ID.SW">
	
		<radialGradient id="SVGID_31_" cx="849.6499" cy="528.55" r="54.5722" gradientTransform="matrix(1 0 0 -1 0 796)" gradientUnits="userSpaceOnUse">
		<stop  offset="0" style="stop-color:#B0FF2A"/>
		<stop  offset="1" style="stop-color:#75A900"/>
	</radialGradient>
	<path class="st30" d="M853.2,304.8l1.1-0.5l0.7-3.4L853.2,304.8z M807.5,316.2l2.4,2.3l0.9,2.5l5.1,4.3l0.4,1.6l-0.8,4.4h0.2
		l3.9,0.8l1.7-0.7l7.4-1l5.5-1.2l3.5-2.1l2-2.6l1.3-4.1l2.3-3l3.2-2.3l2.9-4.9l1.2-4.3l3.3-3.3l-1.8-2.5l-0.5-2.4l-4.6,0.4l-2.1,1.9
		l-3,4.6l-1.6-0.4l-1.5,1.4v3.6l-4,1.2l-1.5,3.6l-7.3,4.1l-2.5,0.5l-12.6-3.2L807.5,316.2L807.5,316.2z M851.6,296.3l0.5-1.3
		l-0.9-0.9L851.6,296.3z M856.9,287l-1.5,0.7l0.3,0.5L856.9,287z M857.7,281.8l-1.2-1.4l-0.4,0.1L857.7,281.8z M856.8,274.4l0.4-3.9
		l-1.4,2.5L856.8,274.4z M860.4,252.7l-1.3-2.7l-2.1-2.5l-1.3,1.1l2.4,3.5l-0.2,2l2.1,1.6L860.4,252.7z M886.4,247.2l-1.4-2.4
		l-0.2,1.7L886.4,247.2z M886.3,228.8l-1.3-1.3h-1.6l-0.4,6.9l1.8,0.6l-1.4,3.6l1,2.5l0.8-0.6l0.1-3.4l1.1-1.3L886.3,228.8z
		 M891.8,222.5h-0.5l0.3,0.3L891.8,222.5z M878.9,202.8L878.9,202.8v0.2V202.8z"/>
</g>
<g id="ID.LA_1_">
	
		<radialGradient id="SVGID_32_" cx="890.2999" cy="458.8" r="59.7045" gradientTransform="matrix(1 0 0 -1 0 796)" gradientUnits="userSpaceOnUse">
		<stop  offset="0" style="stop-color:#B0FF2A"/>
		<stop  offset="1" style="stop-color:#75A900"/>
	</radialGradient>
	<path class="st31" d="M871.1,399.4l-0.1-2.5l-1.8-4.5l0.6-3.7l-2.1-1l-0.9,2.4l1.8,5.3v1.7L871.1,399.4z M834.6,387.8l-0.5-0.8
		l-0.9,0.4L834.6,387.8z M857.5,383l-1.9,0.8l2,3l12.8-1.2l4.4-0.8l2.3-1.2l-7.3-0.8l-8,0.5L857.5,383z M838.2,379.1l-1.9,0.4
		l-2.5,4.3l1.5,4.3h2.4l3.4-0.8l2.5-1.6l4.9,0.9l0.9-1.3l5.8-0.6l-0.4-3h-2.2l-1.7-1.2l-0.3,1.1l-6.2-1.7l-6.2-0.3V379.1z
		 M899.2,372.2l-1.2,1.1l2.1-0.1L899.2,372.2z M909.8,374.1l-1.9-1.9l-2.5-0.6l-2.9,2.8l-1.5-0.1l-0.6,3.2l0.6,2.8l3,1.1l7.9-1.2
		l2.5,0.8l1.9-3.5l-5.3-3.7L909.8,374.1z M907,369.2l-3.2-1.5l-1.9,1.6l0.8,0.5L907,369.2z M899,358.1l-2.2-4l-1.3,3.8L899,358.1z
		 M905.9,349.2l-0.5-1.2l-5.6-1l-0.8,0.3l-0.1,4.5l3.4,3.2l-0.7,1.5l6.7,4.2l3.1-2.5l-0.9-1.7l-2.7-0.5l-2.3-3L905.9,349.2z
		 M896.8,345.1l-1.8,5.7l1,1l1.6-4.9l1-1L896.8,345.1z M947.4,344.2l-0.8-2.4l-4.7-4l1.7,3.1l1.8,0.9L947.4,344.2z M901.2,331.3
		l-0.4-1.6l-1.2,0.4l0.3,1.9L901.2,331.3z M901.4,320.6l-1-0.2l0.1,3.4l1-0.8L901.4,320.6z M878.6,307.4l0.3-1.1l-1.1-0.1
		L878.6,307.4z M914.2,285.2l-7.7,6.6l-1.3,2.2l-2.1,6.8l0.4,2l-2.8,6l0.7,4.5l1-0.4l0.6,4.4l2.3,0.6l-1.2,2.9l-0.5,4.7l2.8,5.1h0.9
		l0.2,15.4l3.1,1.9l4.2,8.5l4.3,2.1l0.8,2l1.8-0.6l-5.8-8.2l-2.2-5.8l-2.2-6.5l0.6-4l-0.2-7.2l1-1.1l4.2,0.7l1.3,1.2l5.2,0.2l2.5,2
		l5.8,1.6l-0.2-1.4l-2.6-0.6l-0.5-5.1l-5.4-2.4l-2.6-0.7l-2.2-2.6l5.6-4.6l4.8-2.7v-2.4l0.9-3.7l-0.7-6.1l-1.6-0.2l-7.8,3.3l-3,3.5
		l0.1,4.3h-1.4l-3,2.9l-0.2,3l-2.4,2.1l-4.2-3.8l4.5-4.7l1.4-0.7l1.8-3.1l0.9-5.3l-0.8-2.7l0.3-2.3l-1.6-1.9l-1.4-0.2l-0.4-3
		l1.7-1.3L914.2,285.2z M907.7,283.3l0.5,1.5l0.8-0.6L907.7,283.3z M916.6,282.7l-1-1.3l0.4,1.3H916.6z M925.6,275l-3,0.5l-2.9,3.2
		l-2.5,4.7l1,1.1l0.3,3.3l5.2,0.8l3.1-5.1l1-4.3L925.6,275z"/>
</g>
<g id="ID.SB">
	
		<radialGradient id="SVGID_33_" cx="311.8499" cy="427.4" r="43.6196" gradientTransform="matrix(1 0 0 -1 0 796)" gradientUnits="userSpaceOnUse">
		<stop  offset="0" style="stop-color:#B0FF2A"/>
		<stop  offset="1" style="stop-color:#75A900"/>
	</radialGradient>
	<path class="st32" d="M316.4,414.2l-2.3-4.3l-2.7-3l-1.1,1.4l1.3,5.9l2.1,1.4l1.2,3.9L316.4,414.2z M310.9,406.6v-2l-4.2-4.6
		l-0.5,6.8l0.9,1.8L310.9,406.6z M300.6,391.1l-1.6-2.6l-1.8,1l1,5h1l4.4,2.8l0.1-0.5L300.6,391.1z M284,362l-6.4,4.8l-0.6,1
		l0.8,2.8l4.1,6.9l1.1,2.6l5,3.1l3-1.2l-0.9-4.5l-1.8-3.5l-1.8-5.5l-2.8-5.2L284,362z M289.4,333l4.2,0.4l0.8,1.4l3,0.7l5,4.8
		l2.7,7.4l3.2,3.2l2.6,4.4l3.1,3.7l1,3.9l1.3,1.5l-0.9,2.1l1.1,3.8l2.5,0.9l2,5.8l5.1,10.9l-1.2,3.6l1.9,4.7l1.9,3.3l0.2,0.3
		l5.2-3.6l0.9-0.7l0.7-0.2l-0.7-2.9l-3.5-7.7l-0.3-3.9l2.5,0.5l5.4-0.6l3.6-3.9l1.1-3.6l-0.4-1.4l3.3-3.2l-0.7-3.5l-0.3-0.7
		l-0.2-0.5l-3.9-1.7l-7.4-6l-4.2-5.6l-0.8-1.8l-3.1-1.9l-2.3-6.4l1.4-0.3l0.3-6.4l-6.9-5.7l-5.3-0.2l-2.3-4.8l0.7-2.2l-0.5-0.5
		l-0.2,0.2l-9-2.9l3.1,6.2l0.6,2.2l-5,0.6l-3.2-1.3l-4.2,2l-4.1,5.4L289.4,333z"/>
</g>
<g id="ID.YO">
	
		<radialGradient id="SVGID_34_" cx="526.2" cy="263.8499" r="8.1297" gradientTransform="matrix(1 0 0 -1 0 796)" gradientUnits="userSpaceOnUse">
		<stop  offset="0" style="stop-color:#B0FF2A"/>
		<stop  offset="1" style="stop-color:#75A900"/>
	</radialGradient>
	<polygon class="st33" points="522.9,535.5 526.8,537.8 528.3,538.2 531.8,539.8 534.6,540 533.8,538.3 533.6,531.2 527.4,528.2 
		526.8,524.3 522.7,528.1 520.6,526.9 517.8,532.4 	"/>
</g>
<g id="ID.MA">
	
		<radialGradient id="SVGID_35_" cx="956.7999" cy="320.5999" r="84.9304" gradientTransform="matrix(1 0 0 -1 0 796)" gradientUnits="userSpaceOnUse">
		<stop  offset="0" style="stop-color:#B0FF2A"/>
		<stop  offset="1" style="stop-color:#75A900"/>
	</radialGradient>
	<path class="st34" d="M909.6,540.2l-1,1.9l1.1-0.3L909.6,540.2z M898.1,540.9l1.8-0.6l-1.8-1.4V540.9z M901.4,537.5l-0.8,1.9
		l5.1,1.9l1.8-1.8l-0.5-1.2L901.4,537.5z M971.4,538.6l-0.5-1.3l-4.5,3.7l-2.2,2.7l6.7-3.6l2.8-2L971.4,538.6z M888.3,537.7l-1-2
		l-0.5,1.8L888.3,537.7z M943.7,530.5l-2.8-0.4l-1.3,2.6l2.1,3.3l1.4,0.4l2.4-4.2L943.7,530.5z M949.2,528.8l-0.6-1l-0.1,0.7
		L949.2,528.8z M973.6,525.8l-3.4,1.2l2.4,0.5L973.6,525.8z M878.2,526.9l-2.3-2.4l-2.2,0.5l-4,2.6l-2.7,0.5l-3.4-0.5l-1.3-0.9
		l-3.4,4.1l-0.9,4.5l2-1.7l8.2-0.7l4,1.4l3.9-4.7l4.2-0.3l0.2-1.7L878.2,526.9z M942.3,524.2l0.3,0.5l0.4-0.2L942.3,524.2z
		 M892.7,526.5l2.3-2.6l-1.4-0.9L892.7,526.5z M975,520.8l-4.3,1.4l1.8,0.1L975,520.8z M977.3,518.5l-0.5-0.5l-0.3,0.7L977.3,518.5z
		 M985.6,514.6l-2.5-0.3l-0.1,0.9l-3.2,3.8l-3.6,3.5l-1.4,4.8l-1.6,0.2l-0.7,3.4v3.4l3.1,0.5l5.6-6.4l1.9-0.9L985.6,514.6z
		 M991.5,513.1l-3.5,0.2l-0.6,0.7l3.6,1l1.6,1.6v-1.8L991.5,513.1z M921.3,515l-1-2.9l-1.8,1.2l0.8,1.7L921.3,515L921.3,515z
		 M931.7,510.5l0.2-0.5l-0.1-0.4L931.7,510.5z M940.5,503.8l-1,0.1l0.5,1L940.5,503.8z M1051.6,504.6l1.6-3.4l-1.3-0.2l-1.4,3.4
		L1051.6,504.6z M1053.1,499.4l-1.3-2.2l-0.9,0.8L1053.1,499.4z M1050.7,496.4l-2.3-2.7l-1.3-0.6l-1.9,1.8l3.1,3.4l1.2,0.4
		L1050.7,496.4z M1055.6,497.3l-0.7-2.2l-0.1,2L1055.6,497.3z M1047,497l-3.1-2.6l0.3-0.6l-2.8-2.5l0.1,6.7l-1.8-0.3l-1.5,6.8
		l0.6,2.1l1.9,2l1.4-0.9l3.8-5.5l1.5,0.1l1.2-1.9L1047,497z M1041.6,486.2l-1,2.8l1.5,0.7l-0.7,1.2l3.8,3.2l0.8-1.8l-2.9-3.1v-2.4
		L1041.6,486.2z M1043,481.8l0.5-0.9l-1-0.9L1043,481.8z M1010.8,476.7l-1.4,0.6l0.8,7.1l1.7-0.2l0.9-2.6l-2.3-4.1L1010.8,476.7z
		 M1012.7,475.1l-1.1,1.9l0.9,1L1012.7,475.1z M1003.2,474.7l-0.7,0.3l0.5,0.6L1003.2,474.7z M899.7,474l-0.1,0.1l0.2,0.1L899.7,474
		z M899.7,473.6l-0.2,0.1l0.2,0.1V473.6z M1051.7,471.9l-2,0.5l-3.9,6.8l-1.5-1l-1.3,0.8l2.7,2.2l-1.1,3l-0.5,3.9l1,3.4l5.7,3.6
		l3.3-3.7l0.7-3.1l-0.6-3l0.5-8.1l-0.9-2.5L1051.7,471.9z M905.2,471.5l-0.1-0.1l-0.2,0.2L905.2,471.5z M904.7,469.9v0.2l0.1,0.1
		L904.7,469.9z M1018.2,477.4l2.2-3.1l1-5.5l-0.3-0.2l-3.9,8.8l-0.8-0.2l-3.2,8.5L1018.2,477.4z M990.2,449.9l-0.9-2.3l-0.4-0.1
		L990.2,449.9z M984.4,440.8l-2.2-1.6l0.4,0.7L984.4,440.8z M981.4,438.1l-0.2-1.4l-0.5-0.2L981.4,438.1z M894.9,434.8v-2.2
		l-2.2,1.2L894.9,434.8z M928.8,429.5l0.1-1.2l-0.4-0.2L928.8,429.5z M921,427.9l2.9-0.9l-0.1-0.5L921,427.9z M918.7,426.5l0.2-1.4
		l-6.5,1.9l-1.1,0.7l-1.2,3.5l6.3-2.8l-1.4,2.2l2.1-0.7L918.7,426.5z M926.1,425.6l1.3,2l0.1-1.7L926.1,425.6z M901.9,418.8
		l-1.1,0.9l1.8,1.1L901.9,418.8z M907.3,418.5l-0.1-2l-1.4-0.2l-1.4,1.7L907.3,418.5z M887.9,415.2l-3.4-1.2l-6.4,0.2l-4.3,2
		l-2.9-0.9l-1.7,1.4l-0.6,1.9l0.2,2.8l4,6.6l4.9,2.9l5.5,2.8l4.6-1.9l4.8-3.3l2.3-0.2l1.2-6.3l-3.3-0.4l-1.5-2.1l1.5-1.4
		L887.9,415.2z M912,411.3l-2.8,1l1.3,0.9L912,411.3z M945.9,407.1l-3.7,0.7l-0.4,1.2l-5.5,2.2l-1-3.5l-3.2,1.3l-7.2-0.1l-0.8-0.4
		l-7.1,0.6l-3,2.4l0.5,2.7l-2.1,0.1l-3,3.3l0.8,8.2l0.3-1.6l2.7-4.4l0.3-2.5l2.3-3.1l4.7,8.4l3.2,0.6l2.8-0.1l0.4-2l2.3-2.2l3.8-0.7
		l-0.3,3l3.3-0.1l8,2.8h0.9l-0.2-4l8.2,0.8l0.9,0.4l4,4.5l3.9,1.5l5.3,3.3l0.9,1.2l4.1,2l0.5-0.9l-0.2-10l-2.7-0.3l-0.8-4.7
		l-4.8-5.3l-7.4-0.1L945.9,407.1z"/>
</g>
<g id="ID.NB">
	
		<radialGradient id="SVGID_36_" cx="677.5499" cy="246.2499" r="27.1023" gradientTransform="matrix(1 0 0 -1 0 796)" gradientUnits="userSpaceOnUse">
		<stop  offset="0" style="stop-color:#B0FF2A"/>
		<stop  offset="1" style="stop-color:#75A900"/>
	</radialGradient>
	<path class="st35" d="M661.6,544.7l-2.2-2.9l-4.4-1.4l-3,0.5l-4.4,4.2l-1.4,2.2l0.1,5.3l-3.7,1l-1.3,1.5l3.7,2.2l0.6-1l7.6,2.2
		l0.1-2.5l1.6-0.3l1.9,1.3l-1.2-2.2l4.3-6.1l0.3-1.8L661.6,544.7z M679.1,544.4l2.8-5.7l-3.8,0.7l0.2,2.9l-0.7,1.4L679.1,544.4z
		 M712.7,541.2l0.8-2l-1.9-0.5L712.7,541.2z M688.6,537.5l-1.6-0.2l-4.4,3.4l6,6l0.8-0.4l5,3.2l0.2,0.9l-4.9,0.8l-2.3,2.2l-4.3-2.1
		l0.6-0.6l-2.9-2.1l-0.2-2.3l-1.3-0.9l-3,1.5l-4.9-3.1l-4.8,3.4l-3.2,0.3l-1.2,1.9l-0.8,3.8l0.7,0.4l-1.6,2.9l0.4,3.5l3.9,1.1
		l1.2,1.1l2.6-0.4l1-1.4l8.4-0.8l2.5-1.5l4.8-0.1l2.9-1.8l3,0.2l5.5-4.8l0.6-2.2l-0.5,6.6l1.1,0.3l6.4-1.6l3.7,1.1v-1.2l-3.9-0.5
		l0.5-1.6l3.3-0.5l5.3,1l0.6-0.8l-2.9-1.3l0.3-4.3l-1-3.9l-3.8-0.4l-1.8,1.3l-0.3,2.6l-1,0.1l-0.6-4.2l-3.3-1l-2.7,2.4l-2.6-0.4
		l-1.7-4.7L688.6,537.5z"/>
</g>
<g id="ID.SG">
	
		<radialGradient id="SVGID_37_" cx="790.6" cy="348.15" r="35.8288" gradientTransform="matrix(1 0 0 -1 0 796)" gradientUnits="userSpaceOnUse">
		<stop  offset="0" style="stop-color:#B0FF2A"/>
		<stop  offset="1" style="stop-color:#75A900"/>
	</radialGradient>
	<path class="st36" d="M823.6,486.3l-1.6-3.2l-0.5,0.9L823.6,486.3z M818.6,475.6l-0.1-1.2l-1.1-0.9L818.6,475.6z M815.1,470.5
		l-0.1-2.4l-1.8-0.5l0.3,2.6L815.1,470.5z M778.4,463.9l-2.7,4l3.2,5.1l1.8-0.4l0.7-6.4l-2.1-2.9L778.4,463.9z M797.1,460.3
		l-0.5-7.5l-0.9-0.8l-3.7,2.4l-2.7,0.7l-1.4,1.9l0.7,4l-0.9,3.1l-1.2,7l3.3,0.2l1.7-1.5l0.4,2.2l2.2-3.2l-0.7-1.8l1.1-4.1
		L797.1,460.3z M806.8,453.6l-2.3-7H803l-3.4,4.4l-1.4,6.7l0.2,1.5l-1.9,3.2l0.9,0.6l-3.6,8.6l-2,2.4l3.2,2.9l2.2,1.2l2.2-3.6
		l-0.4-2.1l3-0.6l4.2-3.3l-3.5-3.6l-1.3,1.2l-0.3-4.7l1.2-2.1l0.2-2.1l2.4-2.8l1.7,3.3L806.8,453.6z M804.8,437.1l-1.1-0.7l-1.8,1.8
		l0.5,2l3.3,2.7l0.8-0.5l1-5.5L804.8,437.1z M807.3,427.2l-0.7-1.5l-1.7,1L807.3,427.2z M788.5,426.5l0.4-1.4l-0.4,0.2V426.5z
		 M791.7,424.3l-0.1-1.5l-0.9,0.3L791.7,424.3z M762.7,410.7l-0.5,4l-1.3,4l-0.8,0.4l-2.5,5.6l0.4,1l5.5,6.3l2.2,1l0.6,1.3l5.5,3.3
		l1.2,3.5l-1.5,2.1l-2,8.1v1.8l1.4,2.2l2.8,1.9l3.9,0.4l4.8-0.1l0.5-0.5l-1.4-3.7l1.2-3l8.3-2.7l3.8-0.6l2.7,1.8v-1.7l-1.9-2.4
		l3.5,3.1l1.1-8.5l-2.1-1.1l1.4,2l-3.3,0.2l-1.8-3.9l1.6-1.5l-2.1-0.8l-2.6-3.8l-2.3-0.3l-2.8-3.6l1.5-1.2l1.4-3.6l0.5-3.4l0,0
		l-6-3.5l-8.3-2.7l-1.5-0.3l-1.4,0.9l-1.3,0.3l-4.2-3.5l-2.4-0.1l-1.7,0.9L762.7,410.7z"/>
</g>
<g id="ID.ST">
	
		<radialGradient id="SVGID_38_" cx="776.7999" cy="433.55" r="51.6326" gradientTransform="matrix(1 0 0 -1 0 796)" gradientUnits="userSpaceOnUse">
		<stop  offset="0" style="stop-color:#B0FF2A"/>
		<stop  offset="1" style="stop-color:#75A900"/>
	</radialGradient>
	<path class="st37" d="M821,386.5l-0.8-0.1l0.1,0.6L821,386.5z M823.6,387.7l-1.6-2.8l0.4,3.1L823.6,387.7z M807,385.4l1.3-1.7
		l-1.2-1.7L807,385.4z M811.9,382.5l0.9-2.4l-1.9,2.2L811.9,382.5z M817.4,378.2L816,376l-0.2,4.9L817.4,378.2z M809.7,367.3
		l-6.6,0.7l-1.4,2.2l1.2,7.7l3-3.2l1.4-2.7l1.5,0.2l-1,5.8l2,0.1l1-3.2l3.2,1.3l2.7-2.1l0.5-3.6l-4-1.5l-2.4,3.7L809.7,367.3z
		 M780.7,348.8l-4.4,2.7l0.1,1l5.7-2L780.7,348.8z M784.9,347.2l-4,1l1.5,0.9L784.9,347.2z M787,348.1l-1-2.7l-0.4,0.2L787,348.1z
		 M791,344.6l-0.7,0.2l1.7,2.7L791,344.6z M748.8,313.8l0.1-1.4l-0.3,0.1L748.8,313.8z M731.1,359.4l0.4,8.6l-1.4,1l-0.1,3l2.5,1.1
		l1.3,4.2l2.9,5.6l-0.5,2.3l0.6,1.7h0.4l0.8-0.4l4.2-2.1l7.1-0.1l2.6,4.3l5.3,5.3l14.7,4.4l1.2,1.6l4.1,3.1l0.9,1.4L778,407
		l-3.8,4.5l-0.4,0.3l1.5,0.3l8.3,2.7l6,3.5l0.4-0.5l1.6,0.7l0.1-3.2l-3.2-1.8l-2.6-6.3l-2.8-2.2l-1.7-5.6l-4.8-7l-3.1-1.1l-0.4-1.9
		l-3.3-2.8l-0.8,1.2l0.1-3.7l3.5,0.9l1,1.3l3-0.5l10-7.7l0.9,0.4l8.5-8.8l1.5-1.2l4.4-7.5l4.9-0.4l0.7-1.2l1.2,2.5l1.9,2.2l3.2-1
		l1.5-5.5l-1.1-2.9l-3.5-1.7l-10.3,2.7l2.6,0.3l0.6,1.7l-10.9-0.2l-4.4,0.2l-3.6,3.7l-2.5,1l-4.6-0.5l-2.7-3l-0.1,0.7l-8.7,9.3
		l-2.6,4.9l-5.2-1.9l-3.4,1.3l-2.3-4.8l0.4-2.3l-2-3.3l-2.1-1.7l-1.4,0.9l-1.7-1.3l-3.3-5.6l-0.8-5.8l-1.2-4.6l0.7-4.2l2.2-6
		l3.1-4.8l2.2-2.4l9.2-0.2l1.7,1.5l5,0.4l1.2-1.2l3.6-0.1l0.1-0.1l0.1-2.2l-3.9-3.2l1.6-1l2.3-3.1l8.1-1.7l2.6-1.2l7.7-1.4l-0.1-0.1
		l-5.8-1.7l-6.4,0.9l-3.2-1.4l-1.2-2.6l0.9-0.7l-4.5,0.6l-4.4-2.4h-3.8l-1.3,1.8l-0.4,4.6l-4.3,5.2l0.3,0.6l-4.2,0.5l-1.7-1.5
		l-0.1-2.7l-2,1.2l-0.2,2.5l-4.1,2.4l-0.2,5.3l-3,2.4l-2.1,5.5l2,3l-0.9,3.3l-1.5,0.3l-2.2-2.6l-0.9,0.5l3.7,4.1l-0.5,2l-0.6,5.7
		l0.8,3.4l1.5,4.4l-0.4,2.1l-2.6-5.8L731.1,359.4L731.1,359.4z"/>
</g>
<g>
	<radialGradient id="SVGID_39_" cx="1136.1499" cy="542.05" r="3.3738" gradientUnits="userSpaceOnUse">
		<stop  offset="0" style="stop-color:#B0FF2A"/>
		<stop  offset="1" style="stop-color:#75A900"/>
	</radialGradient>
	<polygon class="st38" points="1139.9,543.7 1138.4,539.1 1135.3,539.7 1132.7,542.6 1132.4,544.1 1139.6,545 	"/>
</g>
<g>
	<radialGradient id="SVGID_40_" cx="1128.7999" cy="532.4501" r="14.82" gradientUnits="userSpaceOnUse">
		<stop  offset="0" style="stop-color:#B0FF2A"/>
		<stop  offset="1" style="stop-color:#75A900"/>
	</radialGradient>
	<polygon class="st39" points="1140.3,536.1 1145.2,524.7 1142.3,523.9 1140.5,521.2 1137.8,519.4 1130.8,520.5 1127.4,521.8 
		1122,526.2 1117,534.7 1112.5,544.6 1112.4,545.5 1117.1,544.3 1125.1,544.7 1127.5,545.4 1129.9,544.4 	"/>
</g>
<g>
	<radialGradient id="SVGID_41_" cx="1139.1499" cy="506.0001" r="1.1752" gradientUnits="userSpaceOnUse">
		<stop  offset="0" style="stop-color:#B0FF2A"/>
		<stop  offset="1" style="stop-color:#75A900"/>
	</radialGradient>
	<polygon class="st40" points="1139.4,507.2 1140.3,506.4 1139.2,504.8 1138,506.8 	"/>
</g>
<g>
	<radialGradient id="SVGID_42_" cx="1090.5999" cy="381.8" r="11.1474" gradientUnits="userSpaceOnUse">
		<stop  offset="0" style="stop-color:#B0FF2A"/>
		<stop  offset="1" style="stop-color:#75A900"/>
	</radialGradient>
	<polygon class="st41" points="1075.3,378 1075.7,380.2 1080.4,380.7 1091.4,385.6 1093.6,384.6 1096.5,385.4 1100.6,384.9 
		1105.9,383 1101.8,381.4 1095,381.3 1090.7,379.5 1088.7,379.5 	"/>
</g>
<g>
	<radialGradient id="SVGID_43_" cx="1068.1" cy="375.8" r="0.7649" gradientUnits="userSpaceOnUse">
		<stop  offset="0" style="stop-color:#B0FF2A"/>
		<stop  offset="1" style="stop-color:#75A900"/>
	</radialGradient>
	<polygon class="st42" points="1067.8,375.2 1067.2,376.2 1069,376.4 	"/>
</g>
<g>
	<radialGradient id="SVGID_44_" cx="1119.746" cy="470.2837" r="84.3727" gradientUnits="userSpaceOnUse">
		<stop  offset="0" style="stop-color:#B0FF2A"/>
		<stop  offset="1" style="stop-color:#75A900"/>
	</radialGradient>
	<path class="st43" d="M1055.7,409.8l-4.4,5.4c0,0.1-0.1,0.1-0.1,0.1l-1.8,1.6c-0.2,0.1-0.3,0.3-0.4,0.5l-1.3,3.6
		c-0.2,0.7,0.1,1.4,0.8,1.7l18.6,7.7c0.8,0.3,1.1,1.3,0.6,2l-8.1,10.8h0.2l1.5,1.4c0.1,0,0.1,0.1,0.2,0.1l4.2,2.9
		c0.2,0.2,0.5,0.2,0.8,0.2l4.3-0.3c0.1,0,0.3,0,0.4,0l4.9,1.1c0,0,0.1,0,0.1,0l6.2,0.8c0.4,0,0.7,0.2,0.9,0.5l0.4,0.5
		c0.1,0.2,0.3,0.3,0.5,0.4l4.9,2.4c0.1,0,0.2,0.1,0.2,0.1l2.6,0.7c0.1,0,0.2,0.1,0.3,0.1l8.1,4.2c0.1,0.1,0.2,0.1,0.3,0.1l2.7,0.5
		c0.1,0,0.2,0.1,0.3,0.1l3.5,1.6l0.8-0.8l1.2,1.5c0.1,0.1,0.3,0.3,0.4,0.3l5.3,2.7c0.3,0.2,0.7,0.2,1.1,0.1l0.9-0.3l0,0.6
		c0,0.5,0.4,1,0.9,1.2l3.1,1.1c0.5,0.2,0.9,0.7,0.9,1.2l0,1.1c0,0.4,0.2,0.8,0.6,1l2.8,2c0.5,0.4,1.2,0.3,1.6-0.1l0.4-0.3l-0.7,5.2
		c0,0.1,0,0.2,0,0.3l0,0.2c0.2,0.8,1,1.2,1.7,1l1.3-0.5c0.1,0,0.2-0.1,0.3-0.1l3-0.3l-3.3,1.7c-0.7,0.3-0.9,1.2-0.6,1.8l2.8,5.2
		c0.1,0.1,0.1,0.3,0.1,0.4l0.6,4.4c0,0.1,0,0.2,0.1,0.2l1.3,3.7c0.1,0.2,0.2,0.3,0.3,0.5l2.6,2.9c0,0,0,0,0.1,0.1l4.5,4.4l-2.6-1.5
		l2.1,3.6c0.1,0.2,0.3,0.4,0.5,0.5l7.2,3.9h-0.9l-4.1-2.8c-0.3-0.2-0.8-0.3-1.2-0.2l-3,1c-0.2,0.1-0.4,0.1-0.6,0.1l-2.1-0.3
		c-0.2,0-0.5,0-0.7,0.2l-0.2,0.2c-0.3,0.3-0.4,0.8-0.1,1.1l3.4,4.1c0.1,0.1,0.1,0.1,0.2,0.2l0.7,0.4c0.7,0.4,0.4,1.6-0.5,1.5l0,0
		c-0.8,0-1.2,0.9-0.6,1.4l1.4,1.4c0.1,0.1,0.2,0.2,0.2,0.3l1.4,2.4c0.1,0.1,0.2,0.2,0.3,0.3l2,1.8c0.4,0.4,0.6,1,0.3,1.5l-3.7,8.5
		c-0.1,0.2-0.1,0.3-0.1,0.5l-0.1,2.9c0,0.4-0.2,0.8-0.5,1l-0.6,0.5c-0.5,0.4-0.6,1-0.4,1.5l0.4,0.9c0.3,0.9,1.5,1.1,2.2,0.5l2.5-2.3
		c0.1-0.1,0.2-0.2,0.3-0.2l1.9-1c0.5-0.2,1,0,1.2,0.5l0.1,0.4c0.1,0.3,0.3,0.5,0.5,0.6l2.9,0.9c0.3,0.1,0.6,0.1,0.9,0l3.5-1.4
		c0.3-0.1,0.6-0.1,1,0l7.6,2.7c0.2,0.1,0.4,0.2,0.5,0.3l9,9.2c0.1,0.1,0.2,0.2,0.2,0.3l2,3.9c0,0.1,0.1,0.1,0.1,0.2l4.1,5.4
		c0.2,0.3,0.5,0.5,0.9,0.5l8.1,1.1c0.8,0.1,2.7,4.1,2.7,3.3l-0.8-131.6v-21.4c1.4-7.6,0.8-9.3,0.1-9.3h-3.6l0.2-0.2
		c0.4-0.5,0.4-1.2,0-1.7l-1.7-1.8c-0.2-0.2-0.4-0.3-0.7-0.4l-3.5-0.8c-0.5-0.1-1,0.1-1.3,0.4l0,0c-0.4,0.5-1.2,0.6-1.8,0.2l-3.4-2.3
		c-0.3-0.2-0.7-0.3-1-0.2l-4.1,1c-0.3,0.1-0.6,0-0.9-0.1l-11.9-5.8c-0.1,0-0.1-0.1-0.2-0.1l-3.5-2.5c-0.1-0.1-0.2-0.1-0.3-0.2
		l-3.1-1.2c-0.1,0-0.2-0.1-0.3-0.2l-5.7-4c-0.1-0.1-0.3-0.1-0.4-0.2l-6.3-1.8c-0.1,0-0.2-0.1-0.3-0.1l-2.5-1.4
		c-0.1,0-0.2-0.1-0.2-0.1l-3.3-1.1c-0.2-0.1-0.3-0.1-0.5-0.3l-2.9-2.5c-0.4-0.3-0.9-0.4-1.4-0.2l-6.7,2.7c-0.1,0-0.2,0.1-0.2,0.1
		l-3.9,2.7c-0.1,0-0.1,0.1-0.2,0.1l-4.4,2.1c-0.4,0.2-0.7,0.5-0.7,0.9l-0.2,0.8c-0.1,0.3,0,0.6,0.2,0.9l1.7,2.9
		c0.4,0.6,0.1,1.5-0.5,1.8l-0.3,0.2c-0.1,0-0.2,0.1-0.3,0.1l-9.7,3.1l-0.5,0.5l-4.9-1c-0.3-0.1-0.7,0-1,0.2l-0.6,0.4
		c-0.3,0.2-0.4,0.4-0.5,0.7l-1.8,5.7c-0.1,0.2-0.2,0.4-0.4,0.6l-6.5,5.8c-0.2,0.2-0.4,0.4-0.4,0.7l-0.8,3.7
		c-0.1,0.4-0.3,0.7-0.6,0.9l-3.4,2v0.8l-4,3.7c-0.1,0.1-0.2,0.2-0.3,0.3l-0.8,1.5c-0.2,0.3-0.4,0.5-0.8,0.6l-3.5,1.1
		c-0.2,0.1-0.4,0.1-0.6,0l-4-0.5c-0.2,0-0.4-0.1-0.6-0.2l-3.3-2.2c-0.1-0.1-0.3-0.2-0.4-0.4l-1.8-2.7c-0.2-0.3-0.3-0.7-0.2-1.1
		l0.5-2c0.2-0.9-0.6-1.8-1.5-1.6l-0.7,0.1c-0.4,0.1-0.8-0.2-0.9-0.6l-0.1-0.6C1057,409.5,1056.1,409.3,1055.7,409.8z"/>
</g>
<g>
	<radialGradient id="SVGID_45_" cx="1062.5499" cy="363.8" r="1.2947" gradientUnits="userSpaceOnUse">
		<stop  offset="0" style="stop-color:#B0FF2A"/>
		<stop  offset="1" style="stop-color:#75A900"/>
	</radialGradient>
	<polygon class="st44" points="1063.6,365.3 1063.6,362.3 1061.5,362.6 	"/>
</g>
<g>
	
		<radialGradient id="SVGID_46_" cx="1084.2001" cy="434.3" r="9.1393" gradientTransform="matrix(1 0 0 -1 0 796)" gradientUnits="userSpaceOnUse">
		<stop  offset="0" style="stop-color:#B0FF2A"/>
		<stop  offset="1" style="stop-color:#75A900"/>
	</radialGradient>
	<polygon class="st45" points="1074.5,355 1073.4,354.6 1074.5,357.7 1075.8,357.5 1079.1,360.6 1081.3,359.1 1083.1,366.1 
		1084.8,368.1 1087.6,367.8 1088.9,368.8 1093.2,368 1095,365.8 1091.1,365.1 1088.4,360.3 1084.7,356.7 1083.3,356.2 1080.4,356.9 
			"/>
</g>
<image style="display:none;overflow:visible;enable-background:new    ;" width="42" height="52" xlink:href="fire.png"  transform="matrix(1 0 0 1 570.8004 353.1)">
</image>
<image style="display:none;overflow:visible;enable-background:new    ;" width="42" height="52" xlink:href="fire.png"  transform="matrix(1 0 0 1 517.9999 305.1)">
</image>
<image style="display:none;overflow:visible;enable-background:new    ;" width="42" height="52" xlink:href="fire.png"  transform="matrix(1 0 0 1 319.6999 283.6)">
</image>
<image style="display:none;overflow:visible;enable-background:new    ;" width="42" height="52" xlink:href="fire.png"  transform="matrix(1 0 0 1 381.7999 382.6)">
</image>
<image style="display:none;overflow:visible;enable-background:new    ;" width="204" height="263" xlink:href="FA78BDE0.jpg"  transform="matrix(0.2342 0 0 0.2342 1171.9069 825.4968)">
</image>
<image style="display:none;overflow:visible;enable-background:new    ;" width="200" height="281" xlink:href="watering.png"  transform="matrix(0.4 0 0 0.4 628.0521 882.903)">
</image>
</svg>
