<?xml version="1.0" encoding="utf-8"?>
<!-- Generator: Adobe Illustrator 19.1.0, SVG Export Plug-In . SVG Version: 6.00 Build 0)  -->
<svg version="1.1" id="Layer_1" xmlns="http://www.w3.org/2000/svg" xmlns:xlink="http://www.w3.org/1999/xlink" x="0px" y="0px"
	 viewBox="194 190 1000 414" style="enable-background:new 194 190 1000 414;" xml:space="preserve">
<style type="text/css">
	.st0{fill:url(#ID.AC_1_);stroke:#000000;}
	.st1{fill:url(#SVGID_1_);stroke:#000000;}
	.st2{fill:url(#SVGID_2_);stroke:#000000;}
	.st3{fill:url(#SVGID_3_);stroke:#000000;}
	.st4{fill:url(#SVGID_4_);stroke:#000000;}
	.st5{fill:url(#SVGID_5_);stroke:#000000;}
	.st6{fill:url(#SVGID_6_);stroke:#000000;}
	.st7{fill:url(#SVGID_7_);stroke:#000000;}
	.st8{fill:url(#ID.JR_1_);stroke:#000000;}
	.st9{fill:url(#ID.JT_1_);stroke:#000000;}
	.st10{fill:url(#ID.BE_1_);stroke:#000000;}
	.st11{fill:url(#ID.BT_1_);stroke:#000000;}
	.st12{fill:url(#ID.JK_1_);stroke:#000000;}
	.st13{fill:#E20A0A;stroke:#000000;}
	.st14{fill:url(#ID.LA_2_);stroke:#000000;}
	.st15{fill:url(#ID.BB_1_);stroke:#000000;}
	.st16{fill:url(#ID.BA_1_);stroke:#000000;}
	.st17{fill:url(#ID.JI_1_);stroke:#000000;}
	.st18{fill:url(#ID.KS_1_);stroke:#000000;}
	.st19{fill:url(#ID.NT_1_);stroke:#000000;}
	.st20{fill:url(#ID.SE_1_);stroke:#000000;}
	.st21{fill:url(#ID.SR_1_);stroke:#000000;}
	.st22{fill:url(#ID.KR_1_);stroke:#000000;}
	.st23{fill:url(#ID.GO_1_);stroke:#000000;}
	.st24{fill:url(#ID.JA_1_);stroke:#000000;}
	.st25{fill:url(#ID.IB_1_);stroke:#000000;}
	.st26{fill:url(#ID.SU_1_);stroke:#000000;}
	.st27{fill:url(#ID.SW_1_);stroke:#000000;}
	.st28{fill:url(#ID.LA_3_);stroke:#000000;}
	.st29{fill:url(#ID.SB_1_);stroke:#000000;}
	.st30{fill:url(#ID.YO_1_);stroke:#000000;}
	.st31{fill:url(#ID.MA_1_);stroke:#000000;}
	.st32{fill:url(#ID.NB_1_);stroke:#000000;}
	.st33{fill:url(#ID.SG_1_);stroke:#000000;}
	.st34{fill:url(#ID.ST_1_);stroke:#000000;}
	.st35{fill:url(#ID.PA_1_);stroke:#000000;}
</style>
<radialGradient id="ID.AC_1_" cx="231.5995" cy="237.75" r="42.073" gradientUnits="userSpaceOnUse">
	<stop  offset="0" style="stop-color:#B0FF2A"/>
	<stop  offset="1" style="stop-color:#75A900"/>
</radialGradient>
<path id="ID.AC" class="st0" d="M244.4,283.6l-1.6,0.1l1,1.8L244.4,283.6z M245.4,280.7l-2-0.1l3.9,2.7l1.1-1.1l-1.5-2L245.4,280.7z
	 M217.2,263.6l-2.6-0.9l-0.2,2.2l-1.4,0.4l1.8,4.5l6,1.8l5.8,4.6l2.2,1.1l1.1-0.7l-2.7-3.5l-4.8-3.9l-1.2-1.9L217.2,263.6z
	 M265.1,281.2l-1-11.9l-1.5-4.1l-1.9-1.6l-0.7-4l1-1.1l-0.9-2.1l1.4-2.4l-1.5-4.7l-3-5.7l4.3-5.9l1.4-7l4.4-0.9v-0.2v-3.2l-1.6-1.8
	l-4.6-1.2l0.2-1.9l-2.4-6.5l-5.5-4.5l-3.8-4.4l-5.7,2.6l-5.6-3.1l-8.7,1.6l-11.2-2.6l-2.8-2.5l-2.1-2.7l-5-2.5l-2,0.5l-2.3-1
	l-4.6,2.5l1.4,3.3l-1.1,2.9l2.3,3l3.1,8.4l2.3,3.2l5.2,5.2l5.7,6.4l4.5,3.2l4.9,6.6l2.9,1.9l4.7,0.1l2.5,1.9l2.9,3.5l3.4,6.3
	l2.6,2.2l0.4,2l2.8,4.1l3.9,1.5l1.5,8.3v2.9l2,3.2l1.6,0.5l3-0.3l2.9,1.8L265.1,281.2z M198.9,196.9l-0.8-0.9l-0.6,1.3L198.9,196.9z
	 M196.7,194.1l-0.6,1.4l0.9,0.1L196.7,194.1z M199.4,190l1.7,2.8l1.1,0.4L199.4,190z"/>
<radialGradient id="SVGID_1_" cx="683.5495" cy="253.35" r="0.8729" gradientUnits="userSpaceOnUse">
	<stop  offset="0" style="stop-color:#B0FF2A"/>
	<stop  offset="1" style="stop-color:#75A900"/>
</radialGradient>
<polygon class="st1" points="684.7,253.8 683.4,252.9 682.4,253.4 "/>
<radialGradient id="SVGID_2_" cx="686.75" cy="253.15" r="1.6008" gradientUnits="userSpaceOnUse">
	<stop  offset="0" style="stop-color:#B0FF2A"/>
	<stop  offset="1" style="stop-color:#75A900"/>
</radialGradient>
<polygon class="st2" points="687.6,255.1 687.9,251.2 685.6,253.7 "/>
<radialGradient id="SVGID_3_" cx="681.25" cy="248.5" r="2.2861" gradientUnits="userSpaceOnUse">
	<stop  offset="0" style="stop-color:#B0FF2A"/>
	<stop  offset="1" style="stop-color:#75A900"/>
</radialGradient>
<polygon class="st3" points="684,249 681.5,247.5 678.5,246.8 678.6,248.9 683.9,250.2 "/>
<radialGradient id="SVGID_4_" cx="689.55" cy="240.75" r="0.8016" gradientUnits="userSpaceOnUse">
	<stop  offset="0" style="stop-color:#B0FF2A"/>
	<stop  offset="1" style="stop-color:#75A900"/>
</radialGradient>
<polygon class="st4" points="689.3,239.9 688.8,240.3 690.3,241.6 "/>
<radialGradient id="SVGID_5_" cx="687" cy="235.25" r="1.7295" gradientUnits="userSpaceOnUse">
	<stop  offset="0" style="stop-color:#B0FF2A"/>
	<stop  offset="1" style="stop-color:#75A900"/>
</radialGradient>
<polygon class="st5" points="687.8,237.1 688.6,236.2 687,233.4 685.4,235.3 "/>
<radialGradient id="SVGID_6_" cx="690.1495" cy="234.35" r="2.1098" gradientUnits="userSpaceOnUse">
	<stop  offset="0" style="stop-color:#B0FF2A"/>
	<stop  offset="1" style="stop-color:#75A900"/>
</radialGradient>
<polygon class="st6" points="687.6,232.8 692,235.9 692.7,235.4 "/>
<radialGradient id="SVGID_7_" cx="661.45" cy="309.95" r="70.85" gradientUnits="userSpaceOnUse">
	<stop  offset="0" style="stop-color:#B0FF2A"/>
	<stop  offset="1" style="stop-color:#75A900"/>
</radialGradient>
<polygon class="st7" points="614.1,299.6 614.2,304.5 610.2,308.4 607,310.7 608.6,313 607.9,317.3 605.3,320.4 605.1,321.2 
	605.7,320.9 610.7,319 614.5,319.2 618.1,320.4 624.3,319.6 631.4,317.4 632.2,318 630.6,327.2 631.2,330.8 630.9,337 631.4,339.3 
	633.8,337.4 639.1,334.5 637.6,340.3 637.5,342.1 638.7,347.4 640.1,350.9 641.6,356.9 646.5,360.7 648.9,361.5 648.7,366.6 
	646.3,369.9 646,369.8 645.4,369.9 643.6,372.1 647.2,378.6 647.2,381.6 648.7,386.1 648.5,388.4 649.3,391.9 650.4,392.2 
	652.9,390.9 660.9,391.6 664.8,392.8 664.8,392.8 665.6,388.6 663.8,388 661,388.6 660.6,387.3 661.8,385.8 662.5,381.1 
	657.6,378.7 659.9,376.6 664.1,374.9 666.2,369.7 669.5,368.3 668.7,361.1 671,365.9 676.2,362.4 680.9,354.7 682.2,357 
	688.2,354.1 688.4,353.4 686.7,349.6 687.3,349.6 687.8,345.2 684.5,347.7 685.1,345 684.9,342.4 686.4,335.7 686,331.2 
	687.3,325.3 688.3,322.6 693.3,314.7 697.3,314.8 694.7,307.3 697.1,310.7 699.3,313 703.7,314 704.4,315 714.1,315 717.2,312.5 
	717.8,309 715,308.9 712.7,304.7 708.9,301.4 706.2,300.7 706,299.7 694.9,290.5 693.2,286.1 691.7,285.3 693.8,284.6 694,283.2 
	697.9,279 695.2,274.4 691.7,271 687.3,265.3 689.6,263.7 685.4,263.1 688.4,262.2 687.1,260.3 679.2,254.8 682.8,252.2 
	682.8,250.9 678.6,249.4 677.3,246.2 684.3,245.4 682.9,241.9 687,245.9 689.1,245.7 690.7,244.1 688,242.2 689.6,241.7 
	686.3,239.3 687.6,238.7 681.2,233.8 681.8,232.3 676.9,228.2 668,228.7 665.9,227.8 664.4,228.6 662,227.1 659.1,229.6 
	655.2,228.1 653.1,228.1 650.7,230 650.2,228.9 647.4,227.2 643.1,232.7 642.7,235.8 641,238.8 642.2,241.1 641.6,246.5 
	642.3,249.3 641.5,251.4 641.3,257.5 639,260.9 637.7,261.6 635.5,260.3 632.7,267.2 631.7,268.4 632.1,271.3 634.1,271.4 
	634.8,273.8 633,274.4 630.2,277.1 629.1,277.2 628.4,279.1 625.7,280.7 626.2,285 627.6,285.2 627.4,288.2 624.6,289.3 
	623.6,294.6 620.5,299.7 617.3,298.1 "/>
<radialGradient id="ID.JR_1_" cx="466.449" cy="503.2505" r="25.4371" gradientUnits="userSpaceOnUse">
	<stop  offset="0" style="stop-color:#B0FF2A"/>
	<stop  offset="1" style="stop-color:#75A900"/>
</radialGradient>
<path id="ID.JR" class="st8" d="M493.8,501.8h-2.1l-4-1.2l-1.1-6.7l-1.7-1.1l-1.7-2.5l-0.1-2.3l-3.5-0.5l-1.3,2.4l-1.1,0.1l-4.1-2.4
	l-3.9,0.1l-5.2-2.2l-3.9-4.7l-2.4,0.7l-1.9-1.5l-2,3.9h-0.2l-0.6,4.9l-0.5,1.6l-3.7-0.8l-0.3-0.3l-0.1,1.3l-0.5,0.8l-6.6-0.9
	l-0.8,4.3l0.2,4.2l-0.9,7.3l0.5-0.7l2.4,0.5v1.7l-3.7,4.7l0.4,3.2l2.4,0.8l12.5,1.2l10.3,2.8l5,3.1l2.6,1l10.7,1.9l1.3-2.4l6.1-1.1
	l0.3-0.2l-1.3-1.5l-0.3-5.1l-3.3-2.9l1-3.1l2.9-0.5l1.6-1.7l0.1-1.5l2.6-4.6L493.8,501.8z"/>
<radialGradient id="ID.JT_1_" cx="519.849" cy="507.2995" r="31.7712" gradientUnits="userSpaceOnUse">
	<stop  offset="0" style="stop-color:#B0FF2A"/>
	<stop  offset="1" style="stop-color:#75A900"/>
</radialGradient>
<path id="ID.JT" class="st9" d="M493.9,524.1l-3.2-0.8l1,1.1l4,1.2L493.9,524.1z M493.9,501.9l-2.6,4.6l-0.1,1.5l-1.6,1.7l-2.9,0.5
	l-1,3.1l3.3,2.9l0.3,5.1l1.3,1.5l0.2-0.2l4.3,1.8l0.8-0.7l6.9,0.3l11.4,3l2.7,1.2l0.2,0.1l2.8-5.5l2.1,1.2l4.1-3.8l0.6,3.9l6.2,3
	l0.2,7.1l0.8,1.7h0.1l1.7,0.5l0.3,0.1l1-3.1l3.8-3l2.9-0.9l0.8-2.5l-0.8-2.6l-1.6-0.6l1-10.8l0.4-0.4l4.7,1.5l3.4-3.6l0.5-5l1.9-5.6
	l0,0l-3.2-2.3l-1.7,1.2h-6.6l-1.5-5.6l-2.7-1.3l-5.6,2.3l0.2,0.5l-2.8,7.8l-2,2.4l-2.3,1l-3.9-2.1l-0.1-0.8l-6.4,1.5l-3.6-1.4
	l-4.2-0.7l-0.8-0.8l-1.3,1.4l-1.8,0.4l-5.6-1.1l-1.5-1L493.9,501.9L493.9,501.9z M528.7,478.9l-0.6-0.8l0.2,0.8H528.7z"/>
<radialGradient id="ID.BE_1_" cx="356.8005" cy="429.7505" r="34.7411" gradientUnits="userSpaceOnUse">
	<stop  offset="0" style="stop-color:#B0FF2A"/>
	<stop  offset="1" style="stop-color:#75A900"/>
</radialGradient>
<path id="ID.BE" class="st10" d="M354.8,468.9l0.6-1.6l-2.8-2.2l-2.1-0.8l-1.1,1.7l3.2,3.7L354.8,468.9z M335,391.2l-0.7,0.2
	l-0.9,0.7l-5.2,3.6l1.6,2.6l4.2,2.9l2.4,5.4l3,5.8l1.5,2.2l12.7,10.4l0.8,7.1l8.6,7.5l3.6,3.6l0.9,1.8l2.7,1.2l5.3,4.7l2.5,3.4
	l3.6,0.9l0.3,0.2l0.7-0.3l0.9-0.7l1.2-0.9l0.7-0.8l-0.1-0.5l-3.4-9.9l-4.1-1.2l-4.1-1.7l-0.9-4.5l-0.8-1.5l-2.7,0.4l-3.9-1.3
	l-3.5-4.1l1.5-0.6l6.5-5.1l0.4-4.1l-4.3-1.9l-3.7,0.9l-2.3-1.7l-1.8-5.3l-4.1-0.7l-0.1-2.1l-3-4l-0.5-0.7l-0.2-0.2l-2.9-0.7
	l-3.9-2.7l-3.2-4l-1.5-4.3l-1.9-1.4L335,391.2z"/>
<radialGradient id="ID.BT_1_" cx="430.6505" cy="493.05" r="15.7195" gradientUnits="userSpaceOnUse">
	<stop  offset="0" style="stop-color:#B0FF2A"/>
	<stop  offset="1" style="stop-color:#75A900"/>
</radialGradient>
<path id="ID.BT" class="st11" d="M415.8,494.9l-2.8,1.5l-0.2,0.9l2.7,0.1L415.8,494.9z M439.8,506.3l0.9-7.3l-0.2-4.2l0.8-4.3
	l6.6,0.9l0.5-0.8l0.1-1.3h-0.2l-1-2.2l-0.3-2.6l1.1-1.1v-0.3l-1.4-0.9l-6.5-0.4l-1.3-1.2l-4.1,0.7v-1.5l-2.4,0.1l-0.5,1.7l-3.4,6
	l-0.5,4.2l-1,2.7l-2.2-0.9l-1.3,1.4l-3.2,6.8l-2.9-3.4l-2.9,2.3l1.6,1.7l5.1,0.9l1.4-0.5l6.5-0.2l0.1-0.3l8.1,3.8L439.8,506.3
	L439.8,506.3z"/>
<radialGradient id="ID.JK_1_" cx="450.3" cy="486.9005" r="3.4017" gradientUnits="userSpaceOnUse">
	<stop  offset="0" style="stop-color:#B0FF2A"/>
	<stop  offset="1" style="stop-color:#75A900"/>
</radialGradient>
<path id="ID.JK" class="st12" d="M453.6,483.9l-3.2,0.6h-1l-1.3-0.9v-0.2l-1.1,1.1l0.3,2.6l1,2.2h0.2l0.3,0.3l3.7,0.8l0.5-1.6
	L453.6,483.9L453.6,483.9z"/>
<path id="ID.KB" class="st13" d="M500.6,373.4l-1.4-0.9l-2,0.7l1,2.5L500.6,373.4z M514.7,358.8l-3.3,0.7l-0.9,6.1l4-0.6l2.1-0.9
	l1.4-3.9l-0.8-1.1L514.7,358.8z M542.9,405.6l1.9-2.3l2.1-1.4l0.2-8.1l-2.5-6.8l0.7-9l-2.4-3.1l2.9-2.8l1.2,0.4l9.6-8.1l1.2-3.1
	l3.3-3.2l8.1-5.2h2.6l11.2-2.4l8.8-4.1l1.6,2l1-1.5l-0.7-3.2l5-7.7l-1-3.9l-2.3-3.2l2.6-0.8l2.4,0.1l4.2-6.6l0.5-0.4l0.2-0.8
	l2.6-3.1l0.7-4.3l-1.6-2.3l3.2-2.3l4-3.9l-0.1-4.9l0,0l-6.4-0.1l-2.2,2.5l-3.3,2.6l-12.3-4.8l-2.9-3.5l-3.3,0.7l-7.2-0.6l-6.3,3
	l-1.6,7.2l-4.1,1l-1.8,2.6l-4.4-0.6l-2.5,1.8l-0.5-1.4l-6.2-1.5l-7.4,1.9l-2.8,2.5l-3.6,1.1l-2.9-1.4l-1.6-1.9l-1.9-0.2l-2.4-4.6
	l-1.3-0.2l-3.1-3.2l-0.5-1.4l-2.3-1l-3.3-3.8l-0.7-4.6l-2.5-3.8l-3.9-0.8l-1.5,4.2l1.3-1l-5.3,6.3l-2.2,8.5l3.7-1.2l-5,3l1.3,4.5
	l-2.7,3.1l2,9.5l-0.3,3.2l3.7,1.7l4.3,5.7l-3.1-0.2l1.5,6.3l-1.1-0.6l-1.6,1.2v2.6l3.8,5.3l3.1,0.7l1.6,2.5l-5.1-1.2l0.2,4.6
	l5.5,0.2l8.8,6.1l-0.2,2.8l2.5,2l0.4,3.1l-0.8,5.2l-0.7,1.6l-2,1.7l0.8,2.3l2.6,1.2l0.3,7.7l1.2,3.4l2.2,4.4l-2.1,1.9l1.5,4.5
	l-0.9,2l2,2.5l4.5-3.1l2.4,0.9l0.8,4.2l2.6-3l3.9-2L542.9,405.6z"/>
<radialGradient id="ID.LA_2_" cx="406.801" cy="453.5505" r="25.7901" gradientUnits="userSpaceOnUse">
	<stop  offset="0" style="stop-color:#B0FF2A"/>
	<stop  offset="1" style="stop-color:#75A900"/>
</radialGradient>
<path id="ID.LA" class="st14" d="M407.7,477.3l-1.4-1.7l-0.2,0.3L407.7,477.3z M385.4,452.7l-0.7,0.8l-1.2,0.9l-0.9,0.7l-0.7,0.3
	l0.2,0.1l1.6,0.8l0.7,1.6l5.4,5.6l-0.1,1.2l3.2,4.4l2.4,1.6l0.7,2.5l3.2,2.7l2.2,4.3h3l0.1-10.3l8.2,5.8l2.7,0.7l-0.2-4.7l1.1-0.1
	l1.2-3.3l4.1,5.3l4.9,4.6v1l2.8-7.2l-0.2-1.6l2.6-15.2l-0.7-3.1l0.6-8.8l-0.9-6.5l0,0l-4.8-2.5l-0.1-2.1l-5.9-5.3l-1.6,3.8l-1.9,0.6
	l-1.7,3.5l-2.5,2.7l-2.9,0.8l-11.7,5.4l-1.1,5.6l0.9,5l-5.3,1.8l-5.5-2.7L385.4,452.7z"/>
<path id="ID.SL" class="st13" d="M350.5,403.1l0.5,0.7l3,4l0.1,2.1l4.1,0.7l1.8,5.3l2.3,1.7l3.7-0.9l4.3,1.9l-0.4,4.1l-6.5,5.1
	l-1.5,0.6l3.5,4.1l3.9,1.3l2.7-0.4l0.8,1.5l0.9,4.5l4.1,1.7l4.1,1.2l3.4,9.9l0.1,0.5l1.2,0.7l5.5,2.7l5.3-1.8l-0.9-5l1.1-5.6
	l11.7-5.4l2.9-0.8l2.5-2.7l1.7-3.5l1.9-0.6l1.6-3.8l5.9,5.3l0.1,2.1l4.8,2.5l0.1-0.4l1-3.4l1.5-2.3v-2.6l-1.7-1.5l0.9-7.1l2.7-3.7
	l1.3-4.2l-0.4-3.6l-3.2-0.8l-1.8-2.2l0.2-3.3l-3-1.9l-0.9-1.8l-7.3-5.6l-4.8,0.5l-3.1-1.8l-2.6,2.5l-4.8,6.4l3.2-2.4l0.4-5.3
	l2.3-2.4l1.2-2.9l-1.4-2.9l-5.3-3.7l-1.8,0.6l1.2-3.5l-0.1-0.1l-3.3-0.5l-0.7,1.6l-2.4,1.2l-7.6-0.8l-7.7,4.2l0.3,5.8l-2.2,1
	l-0.2,3.9l-4.9-5.3l-1.1,2.1l0.6,2.4H372l-4,2.2l-1.6,2.6l-7.6,4l-4-2.2l-0.6,1.1l-2.8,1.4L350.5,403.1z"/>
<radialGradient id="ID.BB_1_" cx="451.45" cy="392.8495" r="28.2761" gradientUnits="userSpaceOnUse">
	<stop  offset="0" style="stop-color:#B0FF2A"/>
	<stop  offset="1" style="stop-color:#75A900"/>
</radialGradient>
<path id="ID.BB" class="st15" d="M454.2,409.1l1.1-1.9l-2.6-1.3l-1.6,1.7L454.2,409.1z M459.2,406l-1-1.5l-0.3,1.2L459.2,406z
	 M467.9,405.4l-3.3,0.2l1.4,1.5L467.9,405.4z M475.8,397.4l-2.9,0.1l-1.7,3.2l-0.9,4.6l-1.3,1.1l1.9,5.2l-0.8,1.1l1.7,0.6l3.4-1.3
	l0.7-2.3l2,2.4l0.3,2.2l2-0.3l0.4-1.6l2.6-0.7l2-7l-0.5-2.2l-1.7-2.1L475.8,397.4z M433.7,371.4l-3.4,1.5l0.6,3.7l1.3,2.2l-2.5-0.7
	l-0.9-1.4l0.9-0.9l-1.7-3.2l-3.3,0.6l-2.8,3.3l1.3,1l-2.2,3.3l-2.5,1.1l-0.8,4l3.4,1.3l5.6-1.7l0.9,1.2l3,0.5l1,0.9l0.6,5.5l2.4,2.5
	l-1,3.2l2.1,5l6.4,2l2.4,1.3l1.9,2l5.1,0.8l-0.4-2l-2.5-2.2l1.7-5.1l2.8-2.8l-2.5-1.3l-6.2-1.3l-4-7.4l-0.4-7.4l-2.9-4.9l-1.1-3.4
	L433.7,371.4z"/>
<radialGradient id="ID.BA_1_" cx="625.4" cy="542.3" r="11.5572" gradientUnits="userSpaceOnUse">
	<stop  offset="0" style="stop-color:#B0FF2A"/>
	<stop  offset="1" style="stop-color:#75A900"/>
</radialGradient>
<path id="ID.BA" class="st16" d="M635.1,547.5l-2.3,1.2l1.8,1.9l1.4-0.8L635.1,547.5z M634.5,535.2l-3.5-1.7l-4.3-0.7l-1.7,1.7
	l-4.5,1.2l-7.9-2.5l-0.5,3.1l1.5,2.9l1.8,1.6l3.4,0.1l5.8,4.4l-0.1,5.7l0.8,0.8l2.1-0.5l1.1-3.2l2.2-2.5l5.4-2.3l2.6-3.1
	L634.5,535.2z"/>
<radialGradient id="ID.JI_1_" cx="590.3505" cy="512.751" r="46.5907" gradientUnits="userSpaceOnUse">
	<stop  offset="0" style="stop-color:#B0FF2A"/>
	<stop  offset="1" style="stop-color:#75A900"/>
</radialGradient>
<path id="ID.JI" class="st17" d="M617.2,510.1l-1.8-0.7l-0.8,0.4L617.2,510.1z M644.7,509.5l-3.4,0.7l2,1.1L644.7,509.5z
	 M612.3,509.7l-2.1-1.9L610,510L612.3,509.7z M603.9,503.5l-10.1,0.4l-1.7-0.3h-8.2l-4.9,0.6l-3.4,3.7l0.5,2.5h2l6.6,1.7l0.5-1.6
	l2.6,1.3l6,0.4l0.8-2l1.9-1l4.5,0.4v-0.8l2.5-1.8l3.1-1L603.9,503.5z M633.9,502.4l-2.7,0.7l0.9,2.5l0.9-0.9l5,0.1l-2.3-2.2
	L633.9,502.4z M554,499.9l-1.9,5.6l-0.5,5l-3.4,3.6l-4.7-1.5l-0.4,0.4l-1,10.8l1.6,0.6l0.8,2.6l-0.8,2.5l-2.9,0.9l-3.8,3l-1,3.1
	l1.1,0.6l2.4-1l1.3,1.8l1.8-0.6l5.6,1.8l1-0.4l2.8,1.4l2-2.7l2.5,0.8l1.4-0.4l5.2,1.1l5,1.7l8.4-0.4l2.2,0.1l1.2-1.4h7.8l6.7,4.2
	l2.9,0.2l0.9,1.3l5.3,2l3.4-0.6l2.6,1.3l0.1,0.8l4.3,1.9v-2.7l-3-1.5l-0.8-2.1l-0.5-4l2.3-8.4l0.4-5.4l-3.6-2.1l-4.8-2.3l-2.6,1.7
	l-3.1,1.1l-6.8-0.1l-3.9,1.6l-6.8-3.5l-4.4-2.8l1.2-3l0.3-4.3l-2.4,0.5l-0.2-1.9l-1.4-2.4l-0.3-5.1l-1.9,1l-0.9-0.9l-6.6,0.9
	l-1.8-0.4l-1.8-2.7l-3.7,0.4l-2.4-1.1L554,499.9z M577.8,475.5l-2.9,1.4l0.4,1.3l2.5-0.1V475.5z"/>
<radialGradient id="ID.KS_1_" cx="639.8505" cy="402.95" r="29.9061" gradientUnits="userSpaceOnUse">
	<stop  offset="0" style="stop-color:#B0FF2A"/>
	<stop  offset="1" style="stop-color:#75A900"/>
</radialGradient>
<path id="ID.KS" class="st18" d="M659.8,423.9l1.1-5.4l-2.3,2.5L659.8,423.9z M653.6,433.7l4.2-3.4l-0.4-1.3l-0.2-11.6l0.5-3.3
	l-3.5,2.3l-1.8,4.2l-0.8,5.6l1.2,2.4l-0.7,5.3L653.6,433.7z M646,369.8l0.2-1l-5.9,1.5l-1.4,10.7l-1.2,2.7l0.4,1.1l-3.9,3.9l-6,2
	l-0.4,5.8l-1,1.2l-1.9,4.2l-2.9,2.3l-1.5,0.4l-1.7,3.9l-3.9,10.6l1.3,0.6l2.5,0.7l0.4-2.6l1.1-0.9l-0.7,3.2l1.8,13.1l-0.3,3.9
	l21.1-9.6l6.7-4h1.4l1.2-1.8l0.3-2.2l3.6-6.8l2.2-0.9l-3.1-5.1l0.6-1.5l2.6,3.3l0.5-0.4l2.7-10.1l-1.9-1.2l1.3-0.5l3.8,0.2l0.8-3.7
	l-3.9-1.2l-8-0.7l-2.5,1.3l-1.1-0.3l-0.8-3.5l0.2-2.3l-1.5-4.5v-3l-3.6-6.5l1.8-2.2L646,369.8z"/>
<radialGradient id="ID.NT_1_" cx="774.2" cy="568.4" r="53.9485" gradientUnits="userSpaceOnUse">
	<stop  offset="0" style="stop-color:#B0FF2A"/>
	<stop  offset="1" style="stop-color:#75A900"/>
</radialGradient>
<path id="ID.NT" class="st19" d="M787.9,602.6l2-0.4l5.9-2.8l4.3-4.6l-0.1-4.2l-7.9,6.8l-5.3,2.3l-0.1,2.2L787.9,602.6z
	 M768.8,590.6l-5.3,2.9l0.5,1.2l2.7,0.1l3.4-3.3L768.8,590.6z M802,585.3l1.1-1.1l-2.5,0.1L802,585.3z M729.6,564.3l-4.7,0.6
	l-7.3-0.6l-10.5,2.9l-1.1,1.9l9.6,5.8l0.4-0.7l5.4,0.9l2.3,2.7l2.4,0.9l2.4,4.1l2.3,2.6l5,1.1l1.6,1.1l2.3-2l3.1-0.5l3.2-3.8
	l-0.1-0.9l-2.7-2.7l-2.2-4.2l-2.8-2.5l-2.4,0.9l-1.2-0.7l-3.9-4.9L729.6,564.3z M836.3,557.3l-0.1-2.1l-2.9,0.8l-2.7,1.9l-4.9,2
	l-3.4,7.4l-1.5,0.1l-0.7-2.6l-1.8,1l-3.7-0.9l-6.3,5.6l-3,8.1l0.3,2.7l1.7-0.7l-0.6,2.9l-2.7,1.1l-1.8,4.4l7.4-0.1l2.5-1.7l11.5-3.6
	l5.4-5.3l1.2-0.8l2.8-3.7l3.1-2.4l0.3-1.8l1.8-2.2l-1.7-6.7l4.2-0.7l-0.2-4.2l-1-0.5L836.3,557.3z M723.7,547.1l0.2,3.5l2.3-4.3
	L723.7,547.1z M719.5,542.7l-1.1-0.9l-1,3.1l-0.2,4.2l1.6-0.3l1-2.8l2.1-1.2l-0.7-2L719.5,542.7z M799.5,541.6l-5.8,2l-0.7,1.7
	L799.5,541.6z M802.4,537h-2.9l-2.7,2.1l-0.5,1.5l4.9,0.3l1.8-0.9L802.4,537z M816.5,537l-3-1.6l-4.9,3.1v1.6l-1.2-0.2l1-2.8
	l-4.4,1.6l2.4,0.4l-5.8,4.8l6.7,1l2.4-3.8l1.9-0.5L816.5,537z M822.5,540.3l0.3-4.2l-3.2,4.1l-1-1.7l-3.2,3.6l2.4-0.6l1.7,3.1
	l2.2-2.2L822.5,540.3z M830.2,534.2l-4,3.3l1.7,0.1l-2.8,4.6l6.1-1.2l10.6-1.4l0.6-2.9l-0.7-1.5l-9-0.2l-1.9,1.1L830.2,534.2z
	 M796,534.9l-4.5,0.1l-0.8,1.1l4.3,0.2l-5.8,4.1l-4.4,2.2l-1.1,3.2l-3.6,0.7l-5.3-4.2l-9.1,0.4l-5.1,2.3l-1.8-2.3l-10-3.8l-1.5,0.2
	l-5.5-1.3l-4.4-0.2l-4.2,3.2l-2.3,1.1l-2.6-0.8l-0.1,2l-1.7,2.5l-0.2,3.5l1.8,1.7l1.7,0.1l4.6-0.9l2.9,1.3l6.1-0.7l0.8,1.1l2.6,0.5
	l1.8-0.9l1.1,2.1l1.9,0.6l2.9-0.7l4.6,0.2l0.8-2.4l2.8-0.1l6.2,1.7l4.8-2.1l2.4-1.7l8.7-0.5l1.2-1l3.4-0.8l2.9-2.1l-0.3-2.8l1.1,0.6
	l0.8-2.4l2.7-1.1L796,534.9z"/>
<radialGradient id="ID.SE_1_" cx="749.65" cy="445.2" r="49.9753" gradientUnits="userSpaceOnUse">
	<stop  offset="0" style="stop-color:#B0FF2A"/>
	<stop  offset="1" style="stop-color:#75A900"/>
</radialGradient>
<path id="ID.SE" class="st20" d="M749.5,508.3l-1.9-1.6l0.1,3.5l2.2-0.5L749.5,508.3z M744.9,493.5l1.3-7.3l0.6-1.5l-1.9-6.6
	l-0.7,9.4l0.5,1.2L744.9,493.5z M736.5,382.8l-1.1,2.2l-3.9,3.2l0.4,3.7l1.3,1.7l-0.1,3.2l1,4.1l-1.3,1.1l-4.6,0.5l1.1,9.3l-3.1,1.2
	l0.8,7.3l0.1,0.1l-0.8,4.4l0.5,3.1l1.8,5.7l-0.6,13.2l-2,8.6l-2.8,5.1l-0.7,2.1l-0.6,4.6l1.2,4.3l4.5,1.1l0.2,1.5l2.6,0.5l3-3
	l4.7,0.3l5-1.9l1.4,2.6h1l-3.7-11.5l1.1-3.8l2.2-4.5l1.3-4l-1.5-5.5l0.6-6.3l-0.5-1.6l0.2-4.2l1.8-6.4l-0.4-11.3l-2.1-1.1l-1.6-5
	l8.5-6.8l9.1-0.5l1.6,2.4l-2,1.3l2,2.3v0.1l1.7-0.9l2.4,0.1l4.2,3.5l1.3-0.3l1.4-0.9l0.4-0.3l3.8-4.5l0.1-2.6l-0.9-1.4l-4.1-3.1
	l-1.2-1.6l-14.7-4.4l-5.3-5.3l-2.6-4.3l-7.1,0.1l-4.2,2.1L736.5,382.8z"/>
<radialGradient id="ID.SR_1_" cx="724.1505" cy="388.85" r="25.2798" gradientUnits="userSpaceOnUse">
	<stop  offset="0" style="stop-color:#B0FF2A"/>
	<stop  offset="1" style="stop-color:#75A900"/>
</radialGradient>
<path id="ID.SR" class="st21" d="M736.1,382.8l-0.6-1.7l0.5-2.3l-2.9-5.6l-1.3-4.2l-2.5-1.1l0.1-3l1.4-1l-0.4-8.6l-0.6,0.4l-2.1,6.5
	l-1,0.5l-2.3,6.8l0.1,6.9l1.1,3.8l-0.5,2.7l-2.8,1.2l-2.1,6.1v4.8l-5.9,4.9l-2,0.9l-0.5,2.6l1.1,1.2l0.9,3.1l-0.6,2.5l-1.1-0.2
	l3.1,12.4l1.7-1.5l4-0.5l3-1.4l3,1.3h0.1l-0.8-7.3l3.1-1.2l-1.1-9.3l4.6-0.5l1.3-1.1l-1-4.1l0.1-3.2l-1.3-1.7l-0.4-3.7l3.9-3.2
	l1.1-2.2L736.1,382.8L736.1,382.8z"/>
<radialGradient id="ID.KR_1_" cx="438.399" cy="284.6" r="63.2388" gradientUnits="userSpaceOnUse">
	<stop  offset="0" style="stop-color:#B0FF2A"/>
	<stop  offset="1" style="stop-color:#75A900"/>
</radialGradient>
<path id="ID.KR" class="st22" d="M405.3,344.6l-1.1-1l-4.6,1.1l-0.7,1.5l2,2.9l0.2,2l1.4-2.1l1.2,0.9l2.7-3.7L405.3,344.6z
	 M404.1,342.4l-0.3-0.9l-1.2,0.2L404.1,342.4z M406.2,334.7l-3.2,5.4l1.9,1.4l4-1.5l4.8,3l-0.4-1.1l2-0.1l-3.5-3.5l-1.3,1.4
	L406.2,334.7z M403,331.3l-0.9,0.7l1.3,1.7L403,331.3z M404.5,329.2l3.8,4.8l0.1-0.9L404.5,329.2z M399.6,318.9l-0.4-0.6l0.2,1.2
	L399.6,318.9z M409.6,317.2l-0.5-0.7l-0.1,0.3L409.6,317.2z M406.8,315.8l-2.4,0.1v0.6L406.8,315.8z M399.4,315.6l-0.9,1.7l0.4,0.3
	L399.4,315.6z M392.1,315.9l-1-1.9l-1.7-0.7L392.1,315.9z M381.7,318.7l1.1-2l-3.4-3.2l1.7,5.5L381.7,318.7z M389.9,316l-0.5-1.8
	l-1.2,0.9L389.9,316z M397.1,313.2l-1.7-1.2l1.4,2.8l2.3-0.9L397.1,313.2z M391.3,310.2l-1.1,0.9l2.4,0.2L391.3,310.2z M411.5,311.4
	l-0.9-1.8l-0.2,0.2L411.5,311.4z M381.2,310l-2.6-1.9l0.8,2.2L381.2,310z M396.6,306.9l-4.5,0.4l0.2,2.8l2.1,0.6L396.6,306.9z
	 M406.1,305.5l-7.3,2.2l0.4,2.6l3.9-1.4l-0.5,2.1l3,3.5l0.7-0.1l1.4-4.8L406.1,305.5z M440.9,267.8l-0.6-2.1l-0.3,0.1L440.9,267.8z
	 M497.2,265l1-1.3v-1.9L497.2,265z M473.8,261.8l0.9-0.1l-1.3-0.7L473.8,261.8z M430.7,261.9l-1.4-0.3l-0.1,3.4l2.3-1.3L430.7,261.9
	z M440.5,255.8l-0.7,0.5l1.2,2.2l0.5-1.6L440.5,255.8z M484.4,234.7l-1.9-3.9l-5,5.7l6.2,5.4l0.2,1.3l-3.7,1.1l2.2,1l3.9-3.8v-4.6
	L484.4,234.7z M477,219.9l-0.1-1.8l-0.3,0.7L477,219.9z"/>
<radialGradient id="ID.GO_1_" cx="790.3" cy="318.5" r="18.9411" gradientUnits="userSpaceOnUse">
	<stop  offset="0" style="stop-color:#B0FF2A"/>
	<stop  offset="1" style="stop-color:#75A900"/>
</radialGradient>
<path id="ID.GO" class="st23" d="M806.8,312.1l-2-0.7l-1.8,2.4l-2.4,0.3l-3.6-2.7l-9.7-1.7l0,0l-7.7,1.4l-2.6,1.2l-8.1,1.7l-2.3,3.1
	l-1.6,1l3.9,3.2l-0.1,2.2h0.1l3.6-0.6l0.5-1.2l3.5,0.3l1.9,2.3l4.5-0.4l1.1-0.8l6.2-0.4l15.3,0.1l9,4.5l0.3-0.1l0.8-4.4l-0.4-1.6
	l-5.1-4.3l-0.9-2.5L806.8,312.1L806.8,312.1z"/>
<radialGradient id="ID.JA_1_" cx="367.5" cy="378.1495" r="31.5553" gradientUnits="userSpaceOnUse">
	<stop  offset="0" style="stop-color:#B0FF2A"/>
	<stop  offset="1" style="stop-color:#75A900"/>
</radialGradient>
<path id="ID.JA" class="st24" d="M404.5,377.4l-1.6-5l0.1-3.7l-1.5-8.5h-1.3l-7.8-1.4l-1.7,0.6l-1.1,1.8l-5.7-4.9l-2.7-3.1l0,0
	l-13.7,1.1l-4.5,5.1l-5.3,0.2l-3.3-3.7l-4.1,0.6l-2.9,2.9l-2.4,0.9l0.3,0.7l0.7,3.5l-3.3,3.2l0.4,1.4l-1.1,3.6l-3.6,3.9l-5.4,0.6
	l-2.5-0.5l0.3,3.9l3.5,7.7l0.7,2.9l1.9-1.4l1.9,1.4l1.5,4.3l3.2,4l3.9,2.7l2.9,0.7l0.2,0.2l0.9-1l2.8-1.4l0.6-1.1l4,2.2l7.6-4
	l1.6-2.6l4-2.2h3.3l-0.6-2.4l1.1-2.1l4.9,5.3l0.2-3.9l2.2-1l-0.3-5.8l7.7-4.2l7.6,0.8l2.4-1.2l0.7-1.6L404.5,377.4L404.5,377.4z"/>
<path id="ID.KT" class="st13" d="M646.3,369.9l2.4-3.3l0.2-5.1l-2.4-0.8l-4.9-3.8l-1.5-6l-1.4-3.5l-1.2-5.3l0.1-1.8l1.5-5.8
	l-5.3,2.9l-2.4,1.9l-0.5-2.3l0.3-6.2l-0.6-3.6l1.6-9.2l-0.8-0.6l-7.1,2.2l-6.2,0.8l-3.6-1.2l-3.8-0.2l-5,1.9l-0.6,0.3l-0.5,0.4
	l-4.2,6.6l-2.4-0.1l-2.6,0.8l2.3,3.2l1,3.9l-5,7.7l0.7,3.2l-1,1.5l-1.6-2l-8.8,4.1l-11.2,2.4h-2.6l-8.1,5.2l-3.3,3.2l-1.2,3.1
	l-9.6,8.1l-1.2-0.4l-2.9,2.8l2.4,3.1l-0.7,9l2.5,6.8l-0.2,8.1l-2.1,1.4l-1.9,2.3l0.1,0.4l-4.2,2l-0.5,1.1l4.1,1.6l2.6-0.8l5.2-3
	l4.7,0.6l0.3,1.2l2.6-1.2l3.7,1.4l-0.3,4.2l0.4,4.2l-0.6,4.5l1.8,0.6l4.7-4.6l1.9-1.3l4.1,0.2l2.8,2.4l3.2-1.2l7.8-5.5l0.5-5.9
	l1.3,3l5.2,5.6l3.5-2.5h1.9l0.9,2.1l-0.3,4.9h3.9l5-2.5l1.6-3.6l1.5,4.3l1.4-0.6l0.8,1.6l0.4,0.3l3.9-10.6l1.7-3.9l1.5-0.4l2.9-2.3
	l1.9-4.2l1-1.2l0.4-5.8l6-2l3.9-3.9l-0.4-1.1l1.2-2.7l1.4-10.7l5.9-1.5l-0.2,1L646.3,369.9z"/>
<radialGradient id="ID.IB_1_" cx="1009.1495" cy="373.85" r="62.1852" gradientUnits="userSpaceOnUse">
	<stop  offset="0" style="stop-color:#B0FF2A"/>
	<stop  offset="1" style="stop-color:#75A900"/>
</radialGradient>
<path id="ID.IB" class="st25" d="M1012.5,418.8l0.3,2.3l0.3-0.3L1012.5,418.8z M989.8,399.9l1.3-1h-0.4L989.8,399.9z M1032,394.7
	l0.4,1.8l1-1.1L1032,394.7z M1054.2,394.9l0.4-0.8l-1.2-0.6L1054.2,394.9z M1050.4,387.6l1-3.2l-1-0.3V387.6z M1046.5,382l0.9-4.4
	l-1.3,2.1L1046.5,382z M963.7,376.4l-3,1l-1.8-0.2l-8.6,3.4l2.7,2.9l4.6,1l0.8,1l5.4-1.3l1.4-1.2l-0.5-4.5L963.7,376.4z
	 M955.3,363.7l-4.1-0.1l-0.2,0.9L955.3,363.7z M976.5,357.6l-6.2,1.5l0.9,0.9l1.2,4.9l5,3l1.2-3l-0.1-7.6L976.5,357.6z M974.5,353.7
	l-6.2,1.6l-2.3-0.4l-0.2,2.4l3.9-0.2l3.1-0.7L974.5,353.7z M971.3,346.2l-0.4-0.8l-4.5,2.3l3.9,0.1L971.3,346.2z M954,347l0.1-2.1
	l-1.1,0.9L954,347z M1058.9,439.2l9.1-12.2l-21.4-8.8l1.8-5.1l2.1-1.9l5.6-6.8l0,0v-6.7l-0.7-1.6l-2.8,0.5l-0.5,1.5l1,6.3l-1.5,0.6
	l-2.6-8.3l-2.3-2.8l-1.1-2.1l-0.8-4.6l0.5-2.2l-0.6-7.5l2.7-4.8l1.4-4.7l-3.2-5l-1.9-4.6l1.1-1.7l-2.3-4.1l-4.1-0.1l-1,0.8l-7.6-0.7
	l-5.3-4.7l-5.2-1.9l-4.2-2.3l-6.8-0.2l-5.3,2.1l-5.3,4.8l-0.5,1.2l-2.3,0.9l-5.6,1.1l-0.1-0.8l-6,2.2l0.2,6.4l-2.2,3.5l-1.8,0.3
	l-2.5,5.1l4.4,0.6l0.7,1.3l3-1.7l-1.2-1.9l2.5,0.9l-0.2,0.9l3.6,0.7l5.4,3.2l3.8-1.7l-2.1,2.8l2.9,1.3l-1.6,2.2l-0.3,2.2l2.7,5.4
	l3,1.5l1.9,2.4l6.7-1.3l0.5,1.6l4.4-0.7l1.3,0.7l5.9-1.5l7.8,0.5l8.9-3.2l-2.6,4.6l2.9-1.8l-2,2.8l2.5,1.8l-5.1,1.4l1.6,2.1
	l-1.4,0.4l-1.1-1.3l-0.9,1.8l-4-1.7l-0.6,2.9l-0.3-3.5l-0.9,4.1l-0.6,0.4l0.3-3.7l-2.8-2.7l-4.9,1.6l-4.1,5.8l-3.1,2.4l-2.7-2.4
	l-3.6,0.7l-2.3-1.7l-4.1,0.5l1.3,0.7l-3.8,0.8l-0.9,4.2l2.7,0.7l5.7,0.7l2.3,1.5l3.2,4.1l-0.6,0.6l2.8,2l1.6-1l0.3,4.4l0.8,4.5
	l-2.6-0.4l-0.6,1.3l1.7,6.3l-0.7-0.3l2.5,4.1l2.6-0.6l3.8,0.3l5.5-5.3l-0.8-3.5l4.1-4.3l-0.8-3l2.6-1.5l0.3-5.9l3.5-4.6l0.9-0.3l1,5
	l-2.9,0.1l-1.7,2.5l-1.7,5.6l1.3,3.7l1.9,1.9l1-1.2l2.2,4.8l3.7-0.9l1.4,0.7l-1.2,1.9l3.6,2.8l0.6-3.7l3.6,3.6l1.7-0.2l4.1-2.2
	l4.3,0.8l-6.3,0.3l-0.9,3.8l1.6,0.6l2.8,2.7L1058.9,439.2z M959.7,337.1l0.1-0.7l-0.9-0.6L959.7,337.1z M974.3,335l-6.8,1l-4.6,2.9
	l2.7,0.9L963,340l3.3,1.5l1.5-0.3l1.8,1.4l1.7-0.6l3.9,3.4l1.6-1.8l-4.8-3.4l-2.3-3l1.8-0.4l6.1,6.9l2.6-0.9l3.4,1.5l0.9-5.5
	l-1.8-0.5l-3.3-2.2L974.3,335z M1050.3,316.8l-0.3-0.7l-0.4,0.8L1050.3,316.8z M983.6,309.1v-0.6l-0.2,0.2L983.6,309.1z"/>
<radialGradient id="ID.SU_1_" cx="279.5995" cy="289.4" r="49.4188" gradientUnits="userSpaceOnUse">
	<stop  offset="0" style="stop-color:#B0FF2A"/>
	<stop  offset="1" style="stop-color:#75A900"/>
</radialGradient>
<path id="ID.SU" class="st26" d="M274,347.4l-2.6-3.2l-0.8,3.4l1.3,1.4L274,347.4z M275.6,341.7l-3.3-6.6h-2.4l4.7,7.6L275.6,341.7z
	 M277.1,330.6l4.7,2.2l-0.8-1.9L277.1,330.6z M249.7,297.7l-1-0.3l-1.1,2.3h-3.2l-1.3,1l7.2,11h1.8l2.1,2.1l3.4,6.7h1l2.4-3.2
	l0.3-4.6l0.7-1.4l-1-2.4l-1.2-0.3l-3.1-2.8l-3.9-6L249.7,297.7z M267.1,229.8l-4.4,0.9l-1.4,7l-4.3,5.9l3,5.7l1.5,4.7l-1.4,2.4
	l0.9,2.1l-1,1.1l0.7,4l1.9,1.6l1.5,4.1l1,11.9l1.1,0.8l4.3,3.7l4.1,1.7l6,6.1l-0.8,3.4l-1.2-0.4l4.6,11l3,12.2l1.1,0.4l1,8.4
	l0.2,0.2l4.1-5.4l4.2-2l3.2,1.3l5-0.6l-0.6-2.2l-3.1-6.2l9,2.9l0.2-0.2v-0.7l1-8.2l-1.7-2.5l-1-4.7l5.3-2.7l2-2.2l-0.2-1.3l-3.2-6.2
	l0.5-3.8l-1.1-6.8l0.6-4.9l0,0l-3.7-3.5l-0.5,2.3l-2.3-3.2l-1-0.3v-5l-2.7-1.5l-2.4-4.2l-4.2-1.6l-6.4-5.8l-6.5-4.3l-4-1.6l-1.9-2
	l-0.9-2.7l-2.6-2.1l-6.5-4.3l-1.3,1.1L267.1,229.8L267.1,229.8z"/>
<path id="ID.RI" class="st13" d="M388.2,343.4l-0.5-1.6l-2.3-1.2l-2.3,0.3l-1.3,3L388.2,343.4z M369.1,327.9l0.8-0.9l-1.6,0.7
	L369.1,327.9z M373.5,320.7l-1-1.9l0.5,1.5L373.5,320.7z M375.7,322.3l2.5-0.9l-0.1-1.9l-1.4-1.9l-1.5,1l-0.5,2.2L375.7,322.3z
	 M374,316.8l0.2-1.4l-0.6,1.7L374,316.8z M364,310.4l-2.6-3.5l-0.8,4.9l-1.8,1.7l2.4,2l9,0.5l1.1,1.2l1.3-2.5l-2.9-2.6l-3.2-2
	L364,310.4z M372.4,309.3l-5.1-2.9l-2.1,0.6l-1.2,3.2l3.1-0.6l7.4,4.8l0.8-0.6L372.4,309.3z M360.1,311.3l-0.4-2.2v-5.3l-4.4-3.6
	l-0.6,4.3l1.1,5l1.4,1.8C357.2,311.3,360.1,311.3,360.1,311.3z M354.9,296.4l-3.6-1.3l-1.4,0.9l7.1,4.2l3.3,3.5l0.1-5.3L354.9,296.4
	z M343.5,284.4l-1.6-1.7l-4.9,2.1l-0.5,2.8l3.1,5.2l3.9-1.5V284.4z M312.7,272.3l-0.6,4.9l1.1,6.8l-0.5,3.8l3.2,6.2l0.2,1.3l-2,2.2
	l-5.3,2.7l1,4.7l1.7,2.5l-1,8.2v0.7l0.5,0.5l-0.7,2.2l2.3,4.8l5.3,0.2l6.9,5.7l-0.3,6.4l-1.4,0.3l2.3,6.4l3.1,1.9l0.8,1.8l4.2,5.6
	l7.4,6l3.9,1.7l0.2,0.5l2.4-0.9l2.9-2.9l4.1-0.6l3.3,3.7l5.3-0.2l4.5-5.1l13.7-1.1v-0.1l-2-1.2l5.4-6.6l-1.6-0.8l-3.7-0.6l3.2-2.8
	l-4.2-0.4l3.6-1.3l1.7-1.7l0.5-2.4l5.3-0.6l-1.1-5.7l-1.1-1.8l-2.3,0.1l-2.7-4.2l-2.6-1.4l-3.5,1.7l-1.2,1.7l-8.7,4.2l-1-0.1
	l-2.5,1.8l-0.9-1l3.8-1.4l7-4l1-2.4l-4.5-5.1l-7.1-0.3l-1.9-0.9l-4.9-5.1l-1.1-3l-1.1-6.2l-2.7-2l-5.3-5l-7.7-1.6l-1.7-3.7l-6.3-8.8
	l-0.5-1.8l-5.1,1l0.3,3.3l1.4,2l1.5,5.1l-2.1-4.2l-4.2-3.3l-2.3-0.6l-4-4.9L312.7,272.3L312.7,272.3z"/>
<radialGradient id="ID.SW_1_" cx="848.95" cy="263.35" r="54.5722" gradientUnits="userSpaceOnUse">
	<stop  offset="0" style="stop-color:#B0FF2A"/>
	<stop  offset="1" style="stop-color:#75A900"/>
</radialGradient>
<path id="ID.SW" class="st27" d="M852.5,300.7l1.1-0.5l0.7-3.4L852.5,300.7z M806.8,312.1l2.4,2.3l0.9,2.5l5.1,4.3l0.4,1.6l-0.8,4.4
	h0.2l3.9,0.8l1.7-0.7l7.4-1l5.5-1.2l3.5-2.1l2-2.6l1.3-4.1l2.3-3l3.2-2.3l2.9-4.9l1.2-4.3l3.3-3.3l-1.8-2.5l-0.5-2.4l-4.6,0.4
	l-2.1,1.9l-3,4.6l-1.6-0.4l-1.5,1.4v3.6l-4,1.2l-1.5,3.6l-7.3,4.1l-2.5,0.5l-12.6-3.2L806.8,312.1L806.8,312.1z M850.9,292.2
	l0.5-1.3l-0.9-0.9L850.9,292.2z M856.2,282.9l-1.5,0.7l0.3,0.5L856.2,282.9z M857,277.7l-1.2-1.4l-0.4,0.1L857,277.7z M856.1,270.3
	l0.4-3.9l-1.4,2.5L856.1,270.3z M859.7,248.6l-1.3-2.7l-2.1-2.5l-1.3,1.1l2.4,3.5l-0.2,2l2.1,1.6L859.7,248.6z M885.7,243.1
	l-1.4-2.4l-0.2,1.7L885.7,243.1z M885.6,224.7l-1.3-1.3h-1.6l-0.4,6.9l1.8,0.6l-1.4,3.6l1,2.5l0.8-0.6l0.1-3.4l1.1-1.3L885.6,224.7z
	 M891.1,218.4h-0.5l0.3,0.3L891.1,218.4z M878.2,198.7L878.2,198.7v0.2V198.7z"/>
<radialGradient id="ID.LA_3_" cx="889.6" cy="333.1" r="59.704" gradientUnits="userSpaceOnUse">
	<stop  offset="0" style="stop-color:#B0FF2A"/>
	<stop  offset="1" style="stop-color:#75A900"/>
</radialGradient>
<path id="ID.LA_1_" class="st28" d="M870.4,395.3l-0.1-2.5l-1.8-4.5l0.6-3.7l-2.1-1l-0.9,2.4l1.8,5.3v1.7L870.4,395.3z M833.9,383.7
	l-0.5-0.8l-0.9,0.4L833.9,383.7z M856.8,378.9l-1.9,0.8l2,3l12.8-1.2l4.4-0.8l2.3-1.2l-7.3-0.8l-8,0.5L856.8,378.9z M837.5,375
	l-1.9,0.4l-2.5,4.3l1.5,4.3h2.4l3.4-0.8l2.5-1.6l4.9,0.9l0.9-1.3l5.8-0.6l-0.4-3h-2.2l-1.7-1.2l-0.3,1.1l-6.2-1.7l-6.2-0.3V375z
	 M898.5,368.1l-1.2,1.1l2.1-0.1L898.5,368.1z M909.1,370l-1.9-1.9l-2.5-0.6l-2.9,2.8l-1.5-0.1l-0.6,3.2l0.6,2.8l3,1.1l7.9-1.2
	l2.5,0.8l1.9-3.5l-5.3-3.7L909.1,370z M906.3,365.1l-3.2-1.5l-1.9,1.6l0.8,0.5L906.3,365.1z M898.3,354l-2.2-4l-1.3,3.8L898.3,354z
	 M905.2,345.1l-0.5-1.2l-5.6-1l-0.8,0.3l-0.1,4.5l3.4,3.2l-0.7,1.5l6.7,4.2l3.1-2.5l-0.9-1.7l-2.7-0.5l-2.3-3L905.2,345.1z
	 M896.1,341l-1.8,5.7l1,1l1.6-4.9l1-1L896.1,341z M946.7,340.1l-0.8-2.4l-4.7-4l1.7,3.1l1.8,0.9L946.7,340.1z M900.5,327.2l-0.4-1.6
	l-1.2,0.4l0.3,1.9L900.5,327.2z M900.7,316.5l-1-0.2l0.1,3.4l1-0.8L900.7,316.5z M877.9,303.3l0.3-1.1l-1.1-0.1L877.9,303.3z
	 M913.5,281.1l-7.7,6.6l-1.3,2.2l-2.1,6.8l0.4,2l-2.8,6l0.7,4.5l1-0.4l0.6,4.4l2.3,0.6l-1.2,2.9l-0.5,4.7l2.8,5.1h0.9l0.2,15.4
	l3.1,1.9l4.2,8.5l4.3,2.1l0.8,2l1.8-0.6l-5.8-8.2l-2.2-5.8l-2.2-6.5l0.6-4l-0.2-7.2l1-1.1l4.2,0.7l1.3,1.2l5.2,0.2l2.5,2l5.8,1.6
	l-0.2-1.4l-2.6-0.6l-0.5-5.1l-5.4-2.4l-2.6-0.7l-2.2-2.6l5.6-4.6l4.8-2.7v-2.4l0.9-3.7l-0.7-6.1l-1.6-0.2l-7.8,3.3l-3,3.5l0.1,4.3
	h-1.4l-3,2.9l-0.2,3l-2.4,2.1l-4.2-3.8l4.5-4.7l1.4-0.7l1.8-3.1l0.9-5.3l-0.8-2.7l0.3-2.3l-1.6-1.9l-1.4-0.2l-0.4-3l1.7-1.3
	L913.5,281.1z M907,279.2l0.5,1.5l0.8-0.6L907,279.2z M915.9,278.6l-1-1.3l0.4,1.3H915.9z M924.9,270.9l-3,0.5l-2.9,3.2l-2.5,4.7
	l1,1.1l0.3,3.3l5.2,0.8l3.1-5.1l1-4.3L924.9,270.9z"/>
<radialGradient id="ID.SB_1_" cx="311.1505" cy="364.4995" r="43.6195" gradientUnits="userSpaceOnUse">
	<stop  offset="0" style="stop-color:#B0FF2A"/>
	<stop  offset="1" style="stop-color:#75A900"/>
</radialGradient>
<path id="ID.SB" class="st29" d="M315.7,410.1l-2.3-4.3l-2.7-3l-1.1,1.4l1.3,5.9l2.1,1.4l1.2,3.9L315.7,410.1z M310.2,402.5v-2
	l-4.2-4.6l-0.5,6.8l0.9,1.8L310.2,402.5z M299.9,387l-1.6-2.6l-1.8,1l1,5h1l4.4,2.8l0.1-0.5L299.9,387z M283.3,357.9l-6.4,4.8
	l-0.6,1l0.8,2.8l4.1,6.9l1.1,2.6l5,3.1l3-1.2l-0.9-4.5l-1.8-3.5l-1.8-5.5l-2.8-5.2L283.3,357.9z M288.7,328.9l4.2,0.4l0.8,1.4l3,0.7
	l5,4.8l2.7,7.4l3.2,3.2l2.6,4.4l3.1,3.7l1,3.9l1.3,1.5l-0.9,2.1l1.1,3.8l2.5,0.9l2,5.8l5.1,10.9l-1.2,3.6l1.9,4.7l1.9,3.3l0.2,0.3
	l5.2-3.6l0.9-0.7l0.7-0.2l-0.7-2.9l-3.5-7.7l-0.3-3.9l2.5,0.5l5.4-0.6l3.6-3.9l1.1-3.6l-0.4-1.4l3.3-3.2l-0.7-3.5l-0.3-0.7l-0.2-0.5
	l-3.9-1.7l-7.4-6l-4.2-5.6l-0.8-1.8l-3.1-1.9l-2.3-6.4l1.4-0.3l0.3-6.4l-6.9-5.7l-5.3-0.2l-2.3-4.8l0.7-2.2l-0.5-0.5l-0.2,0.2
	l-9-2.9l3.1,6.2l0.6,2.2l-5,0.6l-3.2-1.3l-4.2,2l-4.1,5.4L288.7,328.9z"/>
<radialGradient id="ID.YO_1_" cx="525.499" cy="528.05" r="8.1297" gradientUnits="userSpaceOnUse">
	<stop  offset="0" style="stop-color:#B0FF2A"/>
	<stop  offset="1" style="stop-color:#75A900"/>
</radialGradient>
<path id="ID.YO" class="st30" d="M522.2,531.4l3.9,2.3l1.5,0.4l3.5,1.6l2.8,0.2l-0.8-1.7l-0.2-7.1l-6.2-3l-0.6-3.9L522,524l-2.1-1.2
	l-2.8,5.5L522.2,531.4z"/>
<radialGradient id="ID.MA_1_" cx="956.1005" cy="471.3" r="84.9301" gradientUnits="userSpaceOnUse">
	<stop  offset="0" style="stop-color:#B0FF2A"/>
	<stop  offset="1" style="stop-color:#75A900"/>
</radialGradient>
<path id="ID.MA" class="st31" d="M908.9,536.1l-1,1.9l1.1-0.3L908.9,536.1z M897.4,536.8l1.8-0.6l-1.8-1.4V536.8z M900.7,533.4
	l-0.8,1.9l5.1,1.9l1.8-1.8l-0.5-1.2L900.7,533.4z M970.7,534.5l-0.5-1.3l-4.5,3.7l-2.2,2.7l6.7-3.6l2.8-2L970.7,534.5z M887.6,533.6
	l-1-2l-0.5,1.8L887.6,533.6z M943,526.4l-2.8-0.4l-1.3,2.6l2.1,3.3l1.4,0.4l2.4-4.2L943,526.4z M948.5,524.7l-0.6-1l-0.1,0.7
	L948.5,524.7z M972.9,521.7l-3.4,1.2l2.4,0.5L972.9,521.7z M877.5,522.8l-2.3-2.4l-2.2,0.5l-4,2.6l-2.7,0.5l-3.4-0.5l-1.3-0.9
	l-3.4,4.1l-0.9,4.5l2-1.7l8.2-0.7l4,1.4l3.9-4.7l4.2-0.3l0.2-1.7L877.5,522.8z M941.6,520.1l0.3,0.5l0.4-0.2L941.6,520.1z
	 M892,522.4l2.3-2.6l-1.4-0.9L892,522.4z M974.3,516.7l-4.3,1.4l1.8,0.1L974.3,516.7z M976.6,514.4l-0.5-0.5l-0.3,0.7L976.6,514.4z
	 M984.9,510.5l-2.5-0.3l-0.1,0.9l-3.2,3.8l-3.6,3.5l-1.4,4.8l-1.6,0.2l-0.7,3.4v3.4l3.1,0.5l5.6-6.4l1.9-0.9L984.9,510.5z
	 M990.8,509l-3.5,0.2l-0.6,0.7l3.6,1l1.6,1.6v-1.8L990.8,509z M920.6,510.9l-1-2.9l-1.8,1.2l0.8,1.7L920.6,510.9L920.6,510.9z
	 M931,506.4l0.2-0.5l-0.1-0.4L931,506.4z M939.8,499.7l-1,0.1l0.5,1L939.8,499.7z M1050.9,500.5l1.6-3.4l-1.3-0.2l-1.4,3.4
	L1050.9,500.5z M1052.4,495.3l-1.3-2.2l-0.9,0.8L1052.4,495.3z M1050,492.3l-2.3-2.7l-1.3-0.6l-1.9,1.8l3.1,3.4l1.2,0.4L1050,492.3z
	 M1054.9,493.2l-0.7-2.2l-0.1,2L1054.9,493.2z M1046.3,492.9l-3.1-2.6l0.3-0.6l-2.8-2.5l0.1,6.7l-1.8-0.3l-1.5,6.8l0.6,2.1l1.9,2
	l1.4-0.9l3.8-5.5l1.5,0.1l1.2-1.9L1046.3,492.9z M1040.9,482.1l-1,2.8l1.5,0.7l-0.7,1.2l3.8,3.2l0.8-1.8l-2.9-3.1v-2.4L1040.9,482.1
	z M1042.3,477.7l0.5-0.9l-1-0.9L1042.3,477.7z M1010.1,472.6l-1.4,0.6l0.8,7.1l1.7-0.2l0.9-2.6l-2.3-4.1L1010.1,472.6z M1012,471
	l-1.1,1.9l0.9,1L1012,471z M1002.5,470.6l-0.7,0.3l0.5,0.6L1002.5,470.6z M899,469.9l-0.1,0.1l0.2,0.1L899,469.9z M899,469.5
	l-0.2,0.1l0.2,0.1V469.5z M1051,467.8l-2,0.5l-3.9,6.8l-1.5-1l-1.3,0.8l2.7,2.2l-1.1,3l-0.5,3.9l1,3.4l5.7,3.6l3.3-3.7l0.7-3.1
	l-0.6-3l0.5-8.1l-0.9-2.5L1051,467.8z M904.5,467.4l-0.1-0.1l-0.2,0.2L904.5,467.4z M904,465.8v0.2l0.1,0.1L904,465.8z
	 M1017.5,473.3l2.2-3.1l1-5.5l-0.3-0.2l-3.9,8.8l-0.8-0.2l-3.2,8.5L1017.5,473.3z M989.5,445.8l-0.9-2.3l-0.4-0.1L989.5,445.8z
	 M983.7,436.7l-2.2-1.6l0.4,0.7L983.7,436.7z M980.7,434l-0.2-1.4l-0.5-0.2L980.7,434z M894.2,430.7v-2.2l-2.2,1.2L894.2,430.7z
	 M928.1,425.4l0.1-1.2l-0.4-0.2L928.1,425.4z M920.3,423.8l2.9-0.9l-0.1-0.5L920.3,423.8z M918,422.4l0.2-1.4l-6.5,1.9l-1.1,0.7
	l-1.2,3.5l6.3-2.8l-1.4,2.2l2.1-0.7L918,422.4z M925.4,421.5l1.3,2l0.1-1.7L925.4,421.5z M901.2,414.7l-1.1,0.9l1.8,1.1L901.2,414.7
	z M906.6,414.4l-0.1-2l-1.4-0.2l-1.4,1.7L906.6,414.4z M887.2,411.1l-3.4-1.2l-6.4,0.2l-4.3,2l-2.9-0.9l-1.7,1.4l-0.6,1.9l0.2,2.8
	l4,6.6l4.9,2.9l5.5,2.8l4.6-1.9l4.8-3.3l2.3-0.2l1.2-6.3l-3.3-0.4l-1.5-2.1l1.5-1.4L887.2,411.1z M911.3,407.2l-2.8,1l1.3,0.9
	L911.3,407.2z M945.2,403l-3.7,0.7l-0.4,1.2l-5.5,2.2l-1-3.5l-3.2,1.3l-7.2-0.1l-0.8-0.4l-7.1,0.6l-3,2.4l0.5,2.7l-2.1,0.1l-3,3.3
	l0.8,8.2l0.3-1.6l2.7-4.4l0.3-2.5l2.3-3.1l4.7,8.4l3.2,0.6l2.8-0.1l0.4-2l2.3-2.2l3.8-0.7l-0.3,3l3.3-0.1l8,2.8h0.9l-0.2-4l8.2,0.8
	l0.9,0.4l4,4.5l3.9,1.5l5.3,3.3l0.9,1.2l4.1,2l0.5-0.9l-0.2-10l-2.7-0.3l-0.8-4.7l-4.8-5.3l-7.4-0.1L945.2,403z"/>
<radialGradient id="ID.NB_1_" cx="676.8505" cy="545.65" r="27.1012" gradientUnits="userSpaceOnUse">
	<stop  offset="0" style="stop-color:#B0FF2A"/>
	<stop  offset="1" style="stop-color:#75A900"/>
</radialGradient>
<path id="ID.NB" class="st32" d="M660.9,540.6l-2.2-2.9l-4.4-1.4l-3,0.5l-4.4,4.2l-1.4,2.2l0.1,5.3l-3.7,1l-1.3,1.5l3.7,2.2l0.6-1
	l7.6,2.2l0.1-2.5l1.6-0.3l1.9,1.3l-1.2-2.2l4.3-6.1l0.3-1.8L660.9,540.6z M678.4,540.3l2.8-5.7l-3.8,0.7l0.2,2.9l-0.7,1.4
	L678.4,540.3z M712,537.1l0.8-2l-1.9-0.5L712,537.1z M687.9,533.4l-1.6-0.2l-4.4,3.4l6,6l0.8-0.4l5,3.2l0.2,0.9l-4.9,0.8l-2.3,2.2
	l-4.3-2.1l0.6-0.6l-2.9-2.1l-0.2-2.3l-1.3-0.9l-3,1.5l-4.9-3.1l-4.8,3.4l-3.2,0.3l-1.2,1.9l-0.8,3.8l0.7,0.4l-1.6,2.9l0.4,3.5
	l3.9,1.1l1.2,1.1l2.6-0.4l1-1.4l8.4-0.8l2.5-1.5l4.8-0.1l2.9-1.8l3,0.2l5.5-4.8l0.6-2.2l-0.5,6.6l1.1,0.3l6.4-1.6l3.7,1.1v-1.2
	l-3.9-0.5l0.5-1.6l3.3-0.5l5.3,1l0.6-0.8l-2.9-1.3l0.3-4.3l-1-3.9l-3.8-0.4l-1.8,1.3l-0.3,2.6l-1,0.1L702,538l-3.3-1l-2.7,2.4
	l-2.6-0.4l-1.7-4.7L687.9,533.4z"/>
<radialGradient id="ID.SG_1_" cx="789.8995" cy="443.75" r="35.829" gradientUnits="userSpaceOnUse">
	<stop  offset="0" style="stop-color:#B0FF2A"/>
	<stop  offset="1" style="stop-color:#75A900"/>
</radialGradient>
<path id="ID.SG" class="st33" d="M822.9,482.2l-1.6-3.2l-0.5,0.9L822.9,482.2z M817.9,471.5l-0.1-1.2l-1.1-0.9L817.9,471.5z
	 M814.4,466.4l-0.1-2.4l-1.8-0.5l0.3,2.6L814.4,466.4z M777.7,459.8l-2.7,4l3.2,5.1l1.8-0.4l0.7-6.4l-2.1-2.9L777.7,459.8z
	 M796.4,456.2l-0.5-7.5l-0.9-0.8l-3.7,2.4l-2.7,0.7l-1.4,1.9l0.7,4L787,460l-1.2,7l3.3,0.2l1.7-1.5l0.4,2.2l2.2-3.2l-0.7-1.8
	l1.1-4.1L796.4,456.2z M806.1,449.5l-2.3-7h-1.5l-3.4,4.4l-1.4,6.7l0.2,1.5l-1.9,3.2l0.9,0.6l-3.6,8.6l-2,2.4l3.2,2.9l2.2,1.2
	l2.2-3.6l-0.4-2.1l3-0.6l4.2-3.3l-3.5-3.6l-1.3,1.2l-0.3-4.7l1.2-2.1l0.2-2.1l2.4-2.8l1.7,3.3L806.1,449.5z M804.1,433l-1.1-0.7
	l-1.8,1.8l0.5,2l3.3,2.7l0.8-0.5l1-5.5L804.1,433z M806.6,423.1l-0.7-1.5l-1.7,1L806.6,423.1z M787.8,422.4l0.4-1.4l-0.4,0.2V422.4z
	 M791,420.2l-0.1-1.5L790,419L791,420.2z M762,406.6l-0.5,4l-1.3,4l-0.8,0.4l-2.5,5.6l0.4,1l5.5,6.3l2.2,1l0.6,1.3l5.5,3.3l1.2,3.5
	l-1.5,2.1l-2,8.1v1.8l1.4,2.2l2.8,1.9l3.9,0.4l4.8-0.1l0.5-0.5l-1.4-3.7l1.2-3l8.3-2.7l3.8-0.6l2.7,1.8V443l-1.9-2.4l3.5,3.1
	l1.1-8.5l-2.1-1.1l1.4,2l-3.3,0.2l-1.8-3.9l1.6-1.5l-2.1-0.8l-2.6-3.8l-2.3-0.3l-2.8-3.6l1.5-1.2l1.4-3.6l0.5-3.4l0,0l-6-3.5
	l-8.3-2.7l-1.5-0.3l-1.4,0.9l-1.3,0.3l-4.2-3.5l-2.4-0.1l-1.7,0.9L762,406.6z"/>
<radialGradient id="ID.ST_1_" cx="776.1" cy="358.3505" r="51.6328" gradientUnits="userSpaceOnUse">
	<stop  offset="0" style="stop-color:#B0FF2A"/>
	<stop  offset="1" style="stop-color:#75A900"/>
</radialGradient>
<path id="ID.ST" class="st34" d="M820.3,382.4l-0.8-0.1l0.1,0.6L820.3,382.4z M822.9,383.6l-1.6-2.8l0.4,3.1L822.9,383.6z
	 M806.3,381.3l1.3-1.7l-1.2-1.7L806.3,381.3z M811.2,378.4l0.9-2.4l-1.9,2.2L811.2,378.4z M816.7,374.1l-1.4-2.2l-0.2,4.9
	L816.7,374.1z M809,363.2l-6.6,0.7l-1.4,2.2l1.2,7.7l3-3.2l1.4-2.7l1.5,0.2l-1,5.8l2,0.1l1-3.2l3.2,1.3l2.7-2.1l0.5-3.6l-4-1.5
	l-2.4,3.7L809,363.2z M780,344.7l-4.4,2.7l0.1,1l5.7-2L780,344.7z M784.2,343.1l-4,1l1.5,0.9L784.2,343.1z M786.3,344l-1-2.7
	l-0.4,0.2L786.3,344z M790.3,340.5l-0.7,0.2l1.7,2.7L790.3,340.5z M748.1,309.7l0.1-1.4l-0.3,0.1L748.1,309.7z M730.4,355.3l0.4,8.6
	l-1.4,1l-0.1,3l2.5,1.1l1.3,4.2l2.9,5.6l-0.5,2.3l0.6,1.7h0.4l0.8-0.4l4.2-2.1l7.1-0.1l2.6,4.3l5.3,5.3l14.7,4.4l1.2,1.6l4.1,3.1
	l0.9,1.4l-0.1,2.6l-3.8,4.5l-0.4,0.3l1.5,0.3l8.3,2.7l6,3.5l0.4-0.5l1.6,0.7l0.1-3.2l-3.2-1.8l-2.6-6.3l-2.8-2.2l-1.7-5.6l-4.8-7
	l-3.1-1.1l-0.4-1.9l-3.3-2.8l-0.8,1.2l0.1-3.7l3.5,0.9l1,1.3l3-0.5l10-7.7l0.9,0.4l8.5-8.8l1.5-1.2l4.4-7.5l4.9-0.4l0.7-1.2l1.2,2.5
	l1.9,2.2l3.2-1l1.5-5.5l-1.1-2.9l-3.5-1.7l-10.3,2.7l2.6,0.3l0.6,1.7l-10.9-0.2l-4.4,0.2l-3.6,3.7l-2.5,1l-4.6-0.5l-2.7-3l-0.1,0.7
	l-8.7,9.3l-2.6,4.9l-5.2-1.9l-3.4,1.3l-2.3-4.8l0.4-2.3l-2-3.3l-2.1-1.7l-1.4,0.9l-1.7-1.3l-3.3-5.6l-0.8-5.8l-1.2-4.6l0.7-4.2
	l2.2-6l3.1-4.8l2.2-2.4l9.2-0.2l1.7,1.5l5,0.4l1.2-1.2l3.6-0.1l0.1-0.1l0.1-2.2l-3.9-3.2l1.6-1l2.3-3.1l8.1-1.7l2.6-1.2l7.7-1.4
	l-0.1-0.1l-5.8-1.7l-6.4,0.9l-3.2-1.4l-1.2-2.6l0.9-0.7l-4.5,0.6l-4.4-2.4h-3.8l-1.3,1.8l-0.4,4.6l-4.3,5.2l0.3,0.6l-4.2,0.5
	l-1.7-1.5l-0.1-2.7l-2,1.2l-0.2,2.5l-4.1,2.4l-0.2,5.3l-3,2.4l-2.1,5.5l2,3l-0.9,3.3l-1.5,0.3l-2.2-2.6l-0.9,0.5l3.7,4.1l-0.5,2
	l-0.6,5.7l0.8,3.4l1.5,4.4l-0.4,2.1l-2.6-5.8L730.4,355.3L730.4,355.3z"/>
<radialGradient id="ID.PA_1_" cx="1119.1495" cy="454.2995" r="89.5482" gradientUnits="userSpaceOnUse">
	<stop  offset="0" style="stop-color:#B0FF2A"/>
	<stop  offset="1" style="stop-color:#75A900"/>
</radialGradient>
<path id="ID.PA" class="st35" d="M1139.2,539.6l-1.5-4.6l-3.1,0.6l-2.6,2.9l-0.3,1.5l7.2,0.9L1139.2,539.6z M1139.6,532l4.9-11.4
	l-2.9-0.8l-1.8-2.7l-2.7-1.8l-7,1.1l-3.4,1.3l-5.4,4.4l-5,8.5l-4.5,9.9l-0.1,0.9l4.7-1.2l8,0.4l2.4,0.7l2.4-1L1139.6,532z
	 M1138.7,503.1l0.9-0.8l-1.1-1.6l-1.2,2L1138.7,503.1z M1074.6,373.9l0.4,2.2l4.7,0.5l11,4.9l2.2-1l2.9,0.8l4.1-0.5l5.3-1.9
	l-4.1-1.6l-6.8-0.1l-4.3-1.8h-2L1074.6,373.9z M1067.1,371.1l-0.6,1l1.8,0.2L1067.1,371.1z M1056.1,404.4l-5.6,6.8l-2.1,1.9
	l-1.8,5.1l21.4,8.8l-9.1,12.2h0.2l1.6,1.5l4.7,3.2l4.9-0.3l5.2,1.2l6.8,0.9l0.9,1.2l5.3,2.6l2.9,0.8l8.4,4.3l3,0.6l3.6,1.7l0.8-0.8
	l1.4,1.7l6.1,3.1l1.4-0.5l0.1,1.5l4.8,1.7l0.1,2.7l4.2,3l1.2-1l-0.7,5.3l0.4,1.8l2.9-1l3.2-0.3l-4.5,2.3l3.5,6.6l0.7,4.7l1.4,4.1
	l2.8,3.1l4.5,4.4l-2.6-1.5l2.3,3.9l7.5,4.1h-0.9l-4.6-3.2l-3.9,1.3l-2.8-0.4l-1.1,1l4,4.8l3.7,2.2l-5.5-0.3l3.1,3l1.6,2.7l2.9,2.6
	l-4.2,9.6l-0.1,3.8l-1.9,1.5l1.4,3.7l4.1-3.8l3-1.5l0.5,1.8l3.8,1.2l4.4-1.8l8.4,3l9.4,9.6l2.1,4.2l4.5,5.9l2.5,1.4l2.8-32.7
	l1.5-18.8l-0.5-2.9l1.7-13.5l2.1-33l1.8-34.5v-23.9h-4.9l0.9-1.1l-2.7-3l-4.7-1.1l-1.3,1.5l-4.9-3.3l-5.1,1.2l-12.4-6.1l-3.7-2.7
	l-3.4-1.3l-6-4.2l-6.7-1.9l-2.7-1.5l-3.7-1.2l-3.7-3.2l-7.6,3.1l-4.1,2.8l-5.1,2.4l-0.4,2l2.6,4.5l-1.6,0.9l-9.8,3.1l-0.5,0.5
	l-5.4-1.1l-1.5,1l-2,6.5l-7.1,6.3l-1,4.7l-3.9,2.3v0.8l-4.1,3.8l-1.2,2.1l-4.3,1.3l-4.6-0.6l-3.8-2.5l-2.3-3.4l1.1-4.5l-3.4,0.5
	L1056.1,404.4z M1062.9,361.2v-3l-2.1,0.3L1062.9,361.2z M1073.8,350.9l-1.1-0.4l1.1,3.1l1.3-0.2l3.3,3.1l2.2-1.5l1.8,7l1.7,2
	l2.8-0.3l1.3,1l4.3-0.8l1.8-2.2l-3.9-0.7l-2.7-4.8l-3.7-3.6l-1.4-0.5l-2.9,0.7L1073.8,350.9z"/>
<image style="overflow:visible;" width="42" height="52" xlink:href="fire.png"  transform="matrix(1 0 0 1 570.1005 349)">
</image>
<image style="overflow:visible;" width="42" height="52" xlink:href="fire.png"  transform="matrix(1 0 0 1 517.3 301)">
</image>
<image style="overflow:visible;" width="42" height="52" xlink:href="fire.png"  transform="matrix(1 0 0 1 319 279.5)">
</image>
<image style="overflow:visible;" width="42" height="52" xlink:href="fire.png"  transform="matrix(1 0 0 1 381.1 378.5)">
</image>
<image style="overflow:visible;" width="200" height="256" xlink:href="FA78BDE0.jpg"  transform="matrix(0.24 0 0 0.24 977.7999 635.58)">
</image>
<image style="overflow:visible;" width="200" height="281" xlink:href="watering.png"  transform="matrix(0.4 0 0 0.4 434.0521 692.903)">
</image>
</svg>
